<svg width="32" height="24" viewBox="0 0 32 24" fill="none" xmlns="http://www.w3.org/2000/svg">
<path d="M27.0892 1.99047C25.0492 1.07053 22.8626 0.390575 20.576 0.0039333C20.5557 2.41076e-05 20.5346 0.00254333 20.5157 0.0111426C20.4969 0.0197419 20.4811 0.0339958 20.4707 0.0519302C20.1907 0.543898 19.8787 1.18519 19.6601 1.69182C17.2349 1.3295 14.7694 1.3295 12.3443 1.69182C12.1007 1.13034 11.8261 0.582861 11.5216 0.0519302C11.5113 0.033775 11.4957 0.0191986 11.4769 0.0101464C11.4581 0.00109415 11.4369 -0.00200362 11.4163 0.00126668C9.13104 0.387908 6.94444 1.06786 4.90317 1.98914C4.8856 1.9965 4.87072 2.00906 4.8605 2.02513C0.711287 8.12473 -0.426013 14.0737 0.132637 19.948C0.134192 19.9623 0.138658 19.9763 0.145763 19.9889C0.152869 20.0015 0.162466 20.0125 0.173969 20.0213C2.59576 21.7844 5.29694 23.1275 8.1644 23.9944C8.18439 24.0005 8.20577 24.0005 8.22575 23.9943C8.24573 23.9881 8.26338 23.9761 8.2764 23.9597C8.89344 23.1345 9.44023 22.2591 9.91102 21.3425C9.91756 21.33 9.92132 21.3162 9.92206 21.3021C9.92281 21.288 9.92051 21.2739 9.91532 21.2607C9.91014 21.2476 9.90219 21.2357 9.89202 21.2259C9.88185 21.2161 9.86968 21.2086 9.85636 21.2039C8.99505 20.8795 8.16052 20.4881 7.36043 20.0333C7.34605 20.0251 7.33394 20.0134 7.32517 19.9994C7.31641 19.9853 7.31126 19.9693 7.31021 19.9528C7.30915 19.9363 7.31221 19.9198 7.31911 19.9047C7.32602 19.8897 7.33655 19.8766 7.34976 19.8666C7.51776 19.7426 7.68575 19.6133 7.84575 19.484C7.86015 19.4724 7.8775 19.465 7.89586 19.4626C7.91422 19.4602 7.93287 19.463 7.94974 19.4707C13.1856 21.8225 18.8561 21.8225 24.0306 19.4707C24.0475 19.4626 24.0664 19.4594 24.085 19.4615C24.1036 19.4637 24.1213 19.471 24.1359 19.4827C24.2959 19.6133 24.4626 19.7426 24.6319 19.8666C24.6453 19.8764 24.656 19.8893 24.6631 19.9042C24.6702 19.9191 24.6735 19.9356 24.6727 19.9521C24.672 19.9686 24.6671 19.9847 24.6586 19.9988C24.65 20.013 24.6381 20.0248 24.6239 20.0333C23.8266 20.4919 22.9973 20.8799 22.1267 21.2025C22.1133 21.2074 22.1011 21.215 22.0909 21.225C22.0808 21.2349 22.0728 21.2469 22.0676 21.2602C22.0625 21.2734 22.0602 21.2876 22.0609 21.3018C22.0617 21.316 22.0655 21.3299 22.072 21.3425C22.552 22.2585 23.1013 23.1304 23.7053 23.9584C23.7178 23.9753 23.7353 23.9881 23.7554 23.9947C23.7754 24.0014 23.797 24.0017 23.8173 23.9957C26.6897 23.1313 29.3953 21.7875 31.8197 20.0213C31.8315 20.013 31.8415 20.0023 31.8488 19.9899C31.8562 19.9775 31.8608 19.9636 31.8624 19.9493C32.529 13.1577 30.7451 7.25679 27.1305 2.0278C27.1217 2.01081 27.107 1.99756 27.0892 1.99047ZM10.6937 16.3709C9.11771 16.3709 7.81775 14.9456 7.81775 13.1977C7.81775 11.4485 9.09238 10.0246 10.6937 10.0246C12.307 10.0246 13.5949 11.4605 13.5696 13.1977C13.5696 14.947 12.295 16.3709 10.6937 16.3709V16.3709ZM21.3267 16.3709C19.7494 16.3709 18.4508 14.9456 18.4508 13.1977C18.4508 11.4485 19.7241 10.0246 21.3267 10.0246C22.94 10.0246 24.2279 11.4605 24.2026 13.1977C24.2026 14.947 22.9413 16.3709 21.3267 16.3709V16.3709Z" fill="white"/>
</svg>
