<svg width="26" height="24" viewBox="0 0 26 24" fill="none" xmlns="http://www.w3.org/2000/svg">
<path d="M25.4184 12C25.4184 12.5485 25.279 13.0473 25 13.4965C24.721 13.9456 24.3452 14.2884 23.8723 14.5248C23.9858 14.9598 24.0426 15.4137 24.0426 15.8865C24.0426 17.3522 23.539 18.7092 22.5319 19.9574C21.5248 21.2057 20.1513 22.1915 18.4113 22.9149C16.6714 23.6383 14.7801 24 12.7376 24C10.695 24 8.80615 23.6383 7.07092 22.9149C5.3357 22.1915 3.96454 21.2057 2.95745 19.9574C1.95035 18.7092 1.44681 17.3522 1.44681 15.8865C1.44681 15.4421 1.49882 14.9976 1.60284 14.5532C1.12057 14.3168 0.732861 13.9693 0.439716 13.5106C0.146572 13.052 0 12.5485 0 12C0 11.2246 0.274232 10.5603 0.822695 10.0071C1.37116 9.4539 2.03783 9.1773 2.8227 9.1773C3.62648 9.1773 4.31206 9.47518 4.87943 10.0709C6.9409 8.63357 9.37589 7.86761 12.1844 7.77305L13.8298 0.382979C13.8582 0.260047 13.9291 0.160756 14.0426 0.0851064C14.156 0.00945626 14.279 -0.0141844 14.4113 0.0141844L19.6454 1.16312C19.8156 0.813239 20.0709 0.531915 20.4113 0.319149C20.7518 0.106383 21.1253 0 21.5319 0C22.1182 0 22.6194 0.205674 23.0355 0.617021C23.4515 1.02837 23.6596 1.52719 23.6596 2.11348C23.6596 2.69976 23.4515 3.20095 23.0355 3.61702C22.6194 4.0331 22.1182 4.24113 21.5319 4.24113C20.9456 4.24113 20.4468 4.03546 20.0355 3.62411C19.6241 3.21277 19.4184 2.71395 19.4184 2.12766L14.6809 1.07801L13.2057 7.77305C16.0426 7.85816 18.4965 8.61466 20.5674 10.0426C21.1158 9.46572 21.792 9.1773 22.5957 9.1773C23.3806 9.1773 24.0473 9.4539 24.5957 10.0071C25.1442 10.5603 25.4184 11.2246 25.4184 12ZM5.92908 14.8227C5.92908 15.409 6.13475 15.9102 6.5461 16.3262C6.95745 16.7423 7.45627 16.9504 8.04255 16.9504C8.62884 16.9504 9.13002 16.7423 9.5461 16.3262C9.96218 15.9102 10.1702 15.409 10.1702 14.8227C10.1702 14.2364 9.96218 13.7376 9.5461 13.3262C9.13002 12.9149 8.62884 12.7092 8.04255 12.7092C7.46572 12.7092 6.96927 12.9173 6.55319 13.3333C6.13712 13.7494 5.92908 14.2459 5.92908 14.8227ZM17.4184 19.8582C17.5225 19.7541 17.5745 19.6312 17.5745 19.4894C17.5745 19.3475 17.5225 19.2246 17.4184 19.1206C17.3239 19.026 17.2057 18.9787 17.0638 18.9787C16.922 18.9787 16.7991 19.026 16.695 19.1206C16.3073 19.5177 15.7352 19.8109 14.9787 20C14.2222 20.1891 13.4657 20.2837 12.7092 20.2837C11.9527 20.2837 11.1962 20.1891 10.4397 20C9.68322 19.8109 9.11111 19.5177 8.7234 19.1206C8.61939 19.026 8.49645 18.9787 8.35461 18.9787C8.21277 18.9787 8.09456 19.026 8 19.1206C7.89598 19.2151 7.84397 19.3357 7.84397 19.4823C7.84397 19.6288 7.89598 19.7541 8 19.8582C8.40662 20.2648 8.9669 20.5863 9.68085 20.8227C10.3948 21.0591 10.974 21.1986 11.4184 21.2411C11.8629 21.2837 12.2931 21.305 12.7092 21.305C13.1253 21.305 13.5556 21.2837 14 21.2411C14.4444 21.1986 15.0236 21.0591 15.7376 20.8227C16.4515 20.5863 17.0118 20.2648 17.4184 19.8582ZM17.3759 16.9504C17.9622 16.9504 18.461 16.7423 18.8723 16.3262C19.2837 15.9102 19.4894 15.409 19.4894 14.8227C19.4894 14.2459 19.2813 13.7494 18.8652 13.3333C18.4492 12.9173 17.9527 12.7092 17.3759 12.7092C16.7896 12.7092 16.2884 12.9149 15.8723 13.3262C15.4563 13.7376 15.2482 14.2364 15.2482 14.8227C15.2482 15.409 15.4563 15.9102 15.8723 16.3262C16.2884 16.7423 16.7896 16.9504 17.3759 16.9504Z" fill="white"/>
</svg>
