<svg width="30" height="24" viewBox="0 0 30 24" fill="none" xmlns="http://www.w3.org/2000/svg">
<path d="M30 2.84684C28.8968 3.32792 27.7116 3.65297 26.4657 3.79989C27.7513 3.0429 28.713 1.85148 29.1716 0.447947C27.9638 1.15395 26.6419 1.6509 25.2634 1.91719C24.3364 0.943152 23.1085 0.297546 21.7704 0.0806033C20.4324 -0.13634 19.059 0.0875171 17.8634 0.71742C16.6679 1.34732 15.7171 2.34803 15.1588 3.56417C14.6004 4.78031 14.4656 6.14385 14.7754 7.44309C12.328 7.32216 9.93389 6.69618 7.74829 5.60576C5.5627 4.51535 3.63451 2.98487 2.08888 1.11366C1.56038 2.0108 1.2565 3.05097 1.2565 4.15875C1.25591 5.15601 1.50546 6.13799 1.98302 7.01757C2.46057 7.89715 3.15136 8.64713 3.9941 9.20098C3.01675 9.17037 2.06096 8.91049 1.20629 8.44295V8.52096C1.20619 9.91966 1.69783 11.2753 2.59779 12.3579C3.49775 13.4405 4.7506 14.1833 6.14375 14.4603C5.2371 14.7018 4.28654 14.7374 3.36387 14.5644C3.75693 15.7678 4.52259 16.8203 5.55364 17.5742C6.5847 18.3282 7.82954 18.7461 9.11389 18.7692C6.93363 20.4535 4.24102 21.3672 1.46922 21.3632C0.978219 21.3633 0.487637 21.3351 0 21.2786C2.81354 23.0589 6.08871 24.0037 9.43363 24C20.7566 24 26.9466 14.7711 26.9466 6.76698C26.9466 6.50694 26.94 6.24429 26.9281 5.98425C28.1322 5.12738 29.1715 4.0663 29.9974 2.85074L30 2.84684V2.84684Z" fill="white"/>
</svg>
