<svg width="716" height="580" viewBox="0 0 716 580" fill="none" xmlns="http://www.w3.org/2000/svg">
<path d="M-71.0464 415.62L-71.09 415.663L-71.131 415.708C-101.651 449.333 -142.134 467.68 -185.45 467.68C-274.41 467.68 -347.5 388.475 -347.5 290C-347.5 191.525 -274.41 112.32 -185.45 112.32C-142.152 112.32 -101.664 130.652 -69.201 166.419L-69.1594 166.464L-69.115 166.508L57.759 290.001L-71.0464 415.62ZM337.046 164.38L337.09 164.337L337.131 164.292C367.651 130.667 408.134 112.32 451.45 112.32C540.41 112.32 613.5 191.525 613.5 290C613.5 388.475 540.41 467.68 451.45 467.68C408.632 467.68 367.661 449.345 335.201 413.582L335.159 413.536L335.115 413.493L208.241 289.999L337.046 164.38ZM714 290C714 129.588 596.504 2 451.45 2C381.411 2 315.276 32.0014 268.107 83.9457L132.998 215.971L0.304932 86.6032C-49.2643 32.0135 -115.396 2 -185.45 2C-330.513 2 -448 131.724 -448 290C-448 448.276 -330.513 578 -185.45 578C-115.411 578 -49.276 547.999 -2.1069 496.054L133.002 364.029L265.699 493.4C315.265 547.454 380.911 577.469 451.45 577.469C596.508 577.469 714 448.281 714 290Z" stroke="url(#paint0_linear_117_4)" stroke-opacity="0.6" stroke-width="4"/>
<defs>
<linearGradient id="paint0_linear_117_4" x1="133" y1="4" x2="133" y2="576" gradientUnits="userSpaceOnUse">
<stop stop-color="#00C4C4" stop-opacity="0.35"/>
<stop offset="0.322917" stop-color="#E28FF3" stop-opacity="0.1"/>
<stop offset="1" stop-color="#060719" stop-opacity="0"/>
</linearGradient>
</defs>
</svg>
