<svg width="320" height="162" viewBox="0 0 320 162" fill="none" xmlns="http://www.w3.org/2000/svg">
<path d="M104.004 113.774L103.96 113.817L103.92 113.862C95.96 122.625 85.4391 127.375 74.2 127.375C51.1566 127.375 32 106.829 32 81C32 55.1713 51.1566 34.6245 74.2 34.6245C85.4206 34.6245 95.9468 39.3609 104.44 48.7109L104.481 48.7567L104.526 48.7999L137.633 81.0014L104.004 113.774ZM215.996 48.226L216.039 48.1835L216.08 48.1384C224.04 39.3753 234.561 34.6245 245.8 34.6245C268.843 34.6245 288 55.1713 288 81C288 106.829 268.843 127.375 245.8 127.375C234.706 127.375 224.051 122.637 215.56 113.289L215.519 113.243L215.474 113.2L182.367 80.9986L215.996 48.226ZM318 81C318 37.1288 285.807 2 245.8 2C226.522 2 208.327 10.2463 195.35 24.5083L159.998 59.0278L125.299 25.2232C111.685 10.2583 93.4935 2 74.2 2C34.1834 2 2 37.7114 2 81C2 124.289 34.1834 160 74.2 160C93.4779 160 111.673 151.754 124.65 137.492L160.002 102.972L194.704 136.78C208.316 151.597 226.375 159.857 245.8 159.857C285.812 159.857 318 124.294 318 81Z" stroke="url(#paint0_linear_122_29)" stroke-opacity="0.6" stroke-width="4"/>
<defs>
<linearGradient id="paint0_linear_122_29" x1="-5" y1="192.5" x2="300.693" y2="2.69973" gradientUnits="userSpaceOnUse">
<stop stop-color="#00C4C4"/>
<stop offset="0.322917" stop-color="#E28FF3" stop-opacity="0.19"/>
<stop offset="1" stop-color="#060719" stop-opacity="0.07"/>
</linearGradient>
</defs>
</svg>
