<svg
	width="382"
	height="2837"
	viewBox="0 0 382 2837"
	fill="none"
	xmlns="http://www.w3.org/2000/svg"
>
	<mask
		id="mask0_420_8"
		style="mask-type: alpha"
		maskUnits="userSpaceOnUse"
		x="0"
		y="0"
		width="382"
		height="2837"
	>
		<circle cx="191" cy="191" r="191" fill="#C4C4C4" />
		<circle cx="191" cy="682" r="191" fill="#C4C4C4" />
		<circle cx="191" cy="1173" r="191" fill="#C4C4C4" />
		<circle cx="191" cy="1664" r="191" fill="#C4C4C4" />
		<circle cx="191" cy="2155" r="191" fill="#C4C4C4" />
		<circle cx="191" cy="2646" r="191" fill="#C4C4C4" />
		<rect x="173" y="219" width="35" height="2367" fill="#C4C4C4" />
	</mask>
	<g xmlns="http://www.w3.org/2000/svg" mask="url(#mask0_420_8)">
		<path d="M0 -20H382V2837H0V-20Z" fill="#6D4D73" />
		<rect
			xmlns="http://www.w3.org/2000/svg"
			y="-20"
			width="382"
			fill-opacity="0.61"
			fill="red"
			height="280"
		/>
	</g>
	<g clip-path="url(#clip0_420_8)">
		<path
			d="M251.041 2759.84H207.168C206.201 2759.84 205.273 2759.46 204.59 2758.78C203.906 2758.09 203.522 2757.17 203.522 2756.2V2667.51C201.647 2668.46 199.574 2668.95 197.472 2668.95H196.39C192.855 2668.94 189.467 2667.54 186.967 2665.04C184.467 2662.55 183.058 2659.17 183.048 2655.65V2607.71C183.048 2601.67 185.448 2595.89 189.723 2591.62C193.997 2587.35 199.795 2584.94 205.846 2584.93H252.042C258.092 2584.94 263.891 2587.35 268.165 2591.62C272.439 2595.89 274.84 2601.67 274.84 2607.71V2655.65C274.829 2659.18 273.415 2662.56 270.906 2665.06C268.398 2667.55 265 2668.95 261.458 2668.95H260.576C258.474 2668.95 256.401 2668.46 254.526 2667.51V2756.36C254.487 2757.27 254.107 2758.14 253.462 2758.78C252.816 2759.42 251.952 2759.8 251.041 2759.84V2759.84ZM210.974 2752.57H247.555V2655.49C247.555 2654.52 247.939 2653.6 248.623 2652.92C249.306 2652.24 250.234 2651.85 251.201 2651.85C252.168 2651.85 253.095 2652.24 253.779 2652.92C254.463 2653.6 254.847 2654.52 254.847 2655.49C254.857 2657.08 255.498 2658.61 256.63 2659.74C257.763 2660.87 259.295 2661.51 260.897 2661.52H261.778C263.387 2661.52 264.93 2660.89 266.071 2659.76C267.212 2658.63 267.858 2657.09 267.868 2655.49V2607.55C267.868 2603.44 266.236 2599.51 263.329 2596.6C260.423 2593.69 256.479 2592.06 252.363 2592.05H206.006C201.89 2592.06 197.946 2593.69 195.039 2596.6C192.133 2599.51 190.5 2603.44 190.5 2607.55V2655.49C190.511 2657.08 191.151 2658.61 192.284 2659.74C193.416 2660.87 194.949 2661.51 196.55 2661.52H197.472C199.073 2661.51 200.606 2660.87 201.738 2659.74C202.87 2658.61 203.511 2657.08 203.522 2655.49C203.522 2654.52 203.906 2653.6 204.59 2652.92C205.273 2652.24 206.201 2651.85 207.168 2651.85C208.135 2651.85 209.062 2652.24 209.746 2652.92C210.43 2653.6 210.814 2654.52 210.814 2655.49L210.974 2752.57Z"
			fill="black"
		/>
		<path
			d="M207.168 2659.28C206.201 2659.28 205.273 2658.9 204.589 2658.22C203.906 2657.54 203.521 2656.61 203.521 2655.65V2623.01C203.521 2622.04 203.906 2621.12 204.589 2620.44C205.273 2619.76 206.201 2619.37 207.168 2619.37C208.135 2619.37 209.062 2619.76 209.746 2620.44C210.429 2621.12 210.814 2622.04 210.814 2623.01V2655.65C210.814 2656.61 210.429 2657.54 209.746 2658.22C209.062 2658.9 208.135 2659.28 207.168 2659.28Z"
			fill="black"
		/>
		<path
			d="M251.041 2659.28C250.074 2659.28 249.146 2658.9 248.462 2658.22C247.779 2657.54 247.395 2656.61 247.395 2655.65V2623.01C247.395 2622.04 247.779 2621.12 248.462 2620.44C249.146 2619.76 250.074 2619.37 251.041 2619.37C252.008 2619.37 252.935 2619.76 253.619 2620.44C254.302 2621.12 254.687 2622.04 254.687 2623.01V2655.65C254.687 2656.61 254.302 2657.54 253.619 2658.22C252.935 2658.9 252.008 2659.28 251.041 2659.28V2659.28Z"
			fill="black"
		/>
		<path
			d="M229.084 2580.74C224.104 2580.97 219.169 2579.71 214.914 2577.12C210.659 2574.53 207.28 2570.73 205.211 2566.2C203.143 2561.68 202.48 2556.64 203.308 2551.74C204.135 2546.84 206.416 2542.3 209.856 2538.7C213.297 2535.1 217.738 2532.62 222.609 2531.56C227.48 2530.5 232.558 2530.92 237.187 2532.76C241.816 2534.61 245.785 2537.79 248.583 2541.91C251.38 2546.02 252.878 2550.88 252.884 2555.85C253.034 2562.3 250.612 2568.54 246.15 2573.21C241.687 2577.87 235.549 2580.58 229.084 2580.74V2580.74ZM229.084 2538.27C225.548 2538.04 222.023 2538.87 218.967 2540.66C215.912 2542.45 213.467 2545.12 211.951 2548.31C210.435 2551.51 209.917 2555.08 210.466 2558.58C211.014 2562.07 212.602 2565.31 215.025 2567.89C217.447 2570.47 220.592 2572.27 224.05 2573.04C227.508 2573.82 231.12 2573.54 234.416 2572.24C237.712 2570.94 240.54 2568.68 242.533 2565.76C244.526 2562.84 245.592 2559.38 245.592 2555.85C245.666 2553.61 245.299 2551.39 244.509 2549.29C243.72 2547.2 242.525 2545.28 240.992 2543.65C239.459 2542.02 237.618 2540.7 235.575 2539.78C233.532 2538.86 231.326 2538.34 229.084 2538.27V2538.27Z"
			fill="black"
		/>
		<path
			d="M229.084 2759.84C228.117 2759.84 227.189 2759.46 226.505 2758.78C225.822 2758.09 225.438 2757.17 225.438 2756.2V2682.22C225.437 2681.74 225.532 2681.27 225.715 2680.82C225.898 2680.38 226.167 2679.98 226.505 2679.64C226.844 2679.31 227.246 2679.04 227.688 2678.86C228.131 2678.67 228.605 2678.58 229.084 2678.58C229.562 2678.58 230.036 2678.67 230.479 2678.86C230.921 2679.04 231.323 2679.31 231.662 2679.64C232 2679.98 232.269 2680.38 232.452 2680.82C232.635 2681.27 232.73 2681.74 232.73 2682.22V2756.36C232.688 2757.3 232.286 2758.18 231.607 2758.83C230.927 2759.48 230.023 2759.84 229.084 2759.84V2759.84Z"
			fill="black"
		/>
		<path
			d="M137.973 2754.29C129.472 2754.29 121.319 2750.92 115.308 2744.93C109.297 2738.93 105.92 2730.8 105.92 2722.33C105.92 2713.85 109.297 2705.72 115.308 2699.73C121.319 2693.73 129.472 2690.37 137.973 2690.37C139.434 2690.37 140.894 2690.48 142.34 2690.68C142.839 2690.72 143.325 2690.85 143.769 2691.08C144.213 2691.31 144.605 2691.62 144.922 2692.01C145.238 2692.39 145.472 2692.84 145.608 2693.32C145.745 2693.8 145.781 2694.3 145.715 2694.79C145.649 2695.29 145.482 2695.76 145.225 2696.19C144.967 2696.61 144.624 2696.98 144.218 2697.27C143.811 2697.56 143.349 2697.76 142.861 2697.87C142.373 2697.97 141.868 2697.97 141.379 2697.88C140.25 2697.72 139.113 2697.64 137.973 2697.64C132.66 2697.64 127.489 2699.34 123.226 2702.5C118.962 2705.66 115.833 2710.11 114.302 2715.18C112.77 2720.25 112.919 2725.68 114.725 2730.67C116.531 2735.65 119.898 2739.92 124.328 2742.84C128.758 2745.76 134.015 2747.19 139.319 2746.9C144.624 2746.61 149.694 2744.63 153.779 2741.24C157.864 2737.85 160.746 2733.24 161.998 2728.1C163.25 2722.95 162.806 2717.53 160.731 2712.66C160.54 2712.22 160.438 2711.75 160.432 2711.27C160.425 2710.8 160.514 2710.32 160.693 2709.88C160.872 2709.44 161.138 2709.03 161.474 2708.69C161.811 2708.36 162.212 2708.09 162.654 2707.9C163.096 2707.71 163.571 2707.61 164.052 2707.6C164.534 2707.6 165.012 2707.69 165.459 2707.86C165.906 2708.04 166.313 2708.31 166.657 2708.64C167 2708.98 167.274 2709.38 167.462 2709.82C169.517 2714.68 170.335 2719.96 169.845 2725.21C169.354 2730.46 167.57 2735.5 164.651 2739.9C161.732 2744.29 157.769 2747.9 153.115 2750.39C148.46 2752.89 143.258 2754.2 137.973 2754.21V2754.29Z"
			fill="black"
		/>
		<path
			d="M137.613 2736.39C136.898 2736.39 136.2 2736.18 135.603 2735.79C135.005 2735.4 134.534 2734.84 134.247 2734.19L119.543 2699.91C119.351 2699.48 119.247 2699.01 119.238 2698.53C119.229 2698.06 119.314 2697.59 119.489 2697.14C119.664 2696.7 119.926 2696.3 120.258 2695.96C120.591 2695.62 120.987 2695.35 121.426 2695.16C121.867 2694.97 122.343 2694.87 122.824 2694.86C123.305 2694.85 123.783 2694.94 124.23 2695.12C124.677 2695.3 125.085 2695.56 125.429 2695.9C125.772 2696.23 126.046 2696.63 126.234 2697.08L137.132 2722.45C141.138 2712.02 149.152 2695.76 163.135 2687.73C163.548 2687.48 164.008 2687.31 164.487 2687.24C164.966 2687.16 165.454 2687.19 165.924 2687.3C166.394 2687.42 166.835 2687.63 167.223 2687.92C167.61 2688.21 167.936 2688.58 168.181 2688.99C168.426 2689.41 168.585 2689.87 168.649 2690.35C168.713 2690.83 168.681 2691.31 168.555 2691.78C168.428 2692.25 168.209 2692.68 167.912 2693.06C167.614 2693.45 167.243 2693.76 166.821 2694C148.43 2704.63 141.219 2733.35 141.178 2733.67C140.991 2734.41 140.577 2735.07 139.996 2735.57C139.415 2736.06 138.694 2736.36 137.933 2736.43L137.613 2736.39Z"
			fill="black"
		/>
		<path
			d="M137.973 2680.58C129.472 2680.58 121.319 2677.21 115.308 2671.22C109.297 2665.22 105.92 2657.09 105.92 2648.62C105.92 2640.14 109.297 2632.01 115.308 2626.02C121.319 2620.02 129.472 2616.66 137.973 2616.66C139.434 2616.66 140.894 2616.77 142.34 2616.97C142.839 2617.01 143.325 2617.14 143.769 2617.37C144.213 2617.6 144.605 2617.91 144.922 2618.3C145.238 2618.68 145.472 2619.13 145.608 2619.61C145.745 2620.09 145.781 2620.59 145.715 2621.08C145.649 2621.58 145.482 2622.05 145.225 2622.48C144.967 2622.9 144.624 2623.27 144.218 2623.56C143.811 2623.85 143.349 2624.05 142.861 2624.16C142.373 2624.26 141.868 2624.26 141.379 2624.17C140.25 2624.02 139.112 2623.95 137.973 2623.97C132.67 2623.98 127.511 2625.69 123.261 2628.85C119.01 2632.01 115.894 2636.45 114.373 2641.52C112.852 2646.58 113.008 2652 114.817 2656.97C116.627 2661.94 119.993 2666.2 124.419 2669.11C128.844 2672.03 134.093 2673.44 139.387 2673.15C144.682 2672.85 149.741 2670.87 153.815 2667.48C157.889 2664.1 160.762 2659.5 162.007 2654.36C163.253 2649.22 162.805 2643.81 160.731 2638.95C160.54 2638.51 160.438 2638.04 160.432 2637.56C160.425 2637.09 160.514 2636.61 160.693 2636.17C160.872 2635.73 161.138 2635.32 161.474 2634.98C161.811 2634.65 162.212 2634.38 162.654 2634.19C163.096 2634 163.571 2633.9 164.052 2633.89C164.534 2633.89 165.012 2633.98 165.459 2634.15C165.906 2634.33 166.313 2634.6 166.657 2634.93C167 2635.27 167.274 2635.67 167.462 2636.11C169.517 2640.97 170.335 2646.25 169.845 2651.5C169.354 2656.75 167.57 2661.79 164.651 2666.19C161.732 2670.58 157.769 2674.19 153.115 2676.68C148.46 2679.18 143.258 2680.49 137.973 2680.5V2680.58Z"
			fill="black"
		/>
		<path
			d="M137.612 2662.68C136.898 2662.68 136.2 2662.47 135.603 2662.08C135.005 2661.69 134.534 2661.13 134.247 2660.48L119.542 2626.16C119.311 2625.72 119.174 2625.23 119.141 2624.73C119.107 2624.23 119.178 2623.73 119.348 2623.26C119.518 2622.79 119.783 2622.36 120.128 2621.99C120.473 2621.63 120.89 2621.34 121.352 2621.14C121.815 2620.95 122.312 2620.85 122.815 2620.85C123.317 2620.86 123.813 2620.97 124.271 2621.17C124.729 2621.38 125.14 2621.67 125.478 2622.05C125.816 2622.42 126.073 2622.85 126.233 2623.33L137.132 2648.7C141.138 2638.27 149.152 2622.01 163.135 2613.98C163.548 2613.73 164.008 2613.56 164.487 2613.49C164.965 2613.41 165.454 2613.44 165.924 2613.56C166.394 2613.67 166.835 2613.88 167.223 2614.17C167.61 2614.46 167.936 2614.83 168.181 2615.24C168.426 2615.66 168.585 2616.12 168.649 2616.6C168.713 2617.08 168.681 2617.57 168.554 2618.03C168.428 2618.5 168.209 2618.93 167.912 2619.32C167.614 2619.7 167.243 2620.01 166.821 2620.25C148.51 2630.84 141.218 2659.64 141.138 2659.92C140.969 2660.66 140.567 2661.33 139.99 2661.83C139.413 2662.32 138.692 2662.62 137.933 2662.68H137.612Z"
			fill="black"
		/>
		<path
			d="M137.973 2606.87C129.472 2606.87 121.319 2603.5 115.308 2597.51C109.297 2591.51 105.92 2583.38 105.92 2574.91C105.92 2566.43 109.297 2558.3 115.308 2552.31C121.319 2546.31 129.472 2542.95 137.973 2542.95C139.434 2542.95 140.894 2543.06 142.34 2543.26C142.839 2543.3 143.325 2543.43 143.769 2543.66C144.213 2543.89 144.605 2544.2 144.922 2544.59C145.238 2544.97 145.472 2545.42 145.608 2545.9C145.745 2546.38 145.781 2546.88 145.715 2547.37C145.649 2547.87 145.482 2548.34 145.225 2548.77C144.967 2549.19 144.624 2549.56 144.218 2549.85C143.811 2550.14 143.349 2550.34 142.861 2550.45C142.373 2550.55 141.868 2550.55 141.379 2550.46C140.25 2550.31 139.112 2550.24 137.973 2550.26C132.67 2550.27 127.511 2551.98 123.261 2555.14C119.01 2558.3 115.894 2562.74 114.373 2567.81C112.852 2572.87 113.008 2578.29 114.817 2583.26C116.627 2588.23 119.993 2592.49 124.419 2595.4C128.844 2598.32 134.093 2599.73 139.387 2599.44C144.682 2599.14 149.741 2597.16 153.815 2593.77C157.889 2590.39 160.762 2585.79 162.007 2580.65C163.253 2575.51 162.805 2570.1 160.731 2565.24C160.54 2564.8 160.438 2564.33 160.432 2563.85C160.425 2563.38 160.514 2562.9 160.693 2562.46C160.872 2562.02 161.138 2561.61 161.474 2561.28C161.811 2560.94 162.212 2560.67 162.654 2560.48C163.096 2560.29 163.571 2560.19 164.052 2560.18C164.534 2560.18 165.012 2560.27 165.459 2560.44C165.906 2560.62 166.313 2560.89 166.657 2561.22C167 2561.56 167.274 2561.96 167.462 2562.4C169.517 2567.26 170.335 2572.54 169.845 2577.79C169.354 2583.04 167.57 2588.08 164.651 2592.48C161.732 2596.87 157.769 2600.48 153.115 2602.97C148.46 2605.47 143.258 2606.78 137.973 2606.79V2606.87Z"
			fill="black"
		/>
		<path
			d="M137.613 2588.97C136.898 2588.97 136.2 2588.76 135.603 2588.37C135.005 2587.98 134.534 2587.42 134.247 2586.77L119.543 2552.45C119.351 2552.02 119.247 2551.55 119.238 2551.07C119.229 2550.6 119.314 2550.13 119.489 2549.68C119.664 2549.24 119.926 2548.84 120.258 2548.5C120.591 2548.16 120.987 2547.89 121.426 2547.7C121.867 2547.51 122.343 2547.41 122.824 2547.4C123.305 2547.39 123.783 2547.48 124.23 2547.66C124.677 2547.84 125.085 2548.1 125.429 2548.44C125.772 2548.77 126.046 2549.18 126.234 2549.62L137.132 2574.99C141.138 2564.56 149.152 2548.3 163.135 2540.27C163.548 2540.02 164.008 2539.85 164.487 2539.78C164.966 2539.7 165.454 2539.73 165.924 2539.85C166.394 2539.96 166.835 2540.17 167.223 2540.46C167.61 2540.75 167.936 2541.12 168.181 2541.53C168.426 2541.95 168.585 2542.41 168.649 2542.89C168.713 2543.37 168.681 2543.86 168.555 2544.32C168.428 2544.79 168.209 2545.22 167.912 2545.61C167.614 2545.99 167.243 2546.3 166.821 2546.54C148.43 2557.17 141.219 2585.93 141.178 2586.21C140.991 2586.95 140.577 2587.61 139.996 2588.11C139.415 2588.6 138.694 2588.9 137.933 2588.97H137.613Z"
			fill="black"
		/>
	</g>
	<g clip-path="url(#clip1_420_8)">
		<path
			d="M109.497 2243.82H75.401V2191.56C75.4011 2190.58 75.0156 2189.64 74.3278 2188.94C73.64 2188.24 72.7054 2187.84 71.726 2187.83C70.7378 2187.83 69.7901 2188.22 69.0913 2188.92C68.3926 2189.62 68 2190.57 68 2191.56V2273.22C68 2274.21 68.3926 2275.16 69.0913 2275.86C69.7901 2276.56 70.7378 2276.95 71.726 2276.95C72.7054 2276.94 73.64 2276.54 74.3278 2275.84C75.0156 2275.14 75.4011 2274.2 75.401 2273.22V2251.17H98.1146V2273.22C98.1146 2274.21 98.5071 2275.16 99.2059 2275.86C99.9047 2276.56 100.852 2276.95 101.841 2276.95C102.82 2276.94 103.755 2276.54 104.442 2275.84C105.13 2275.14 105.516 2274.2 105.516 2273.22V2251.17H109.497C110.019 2251.23 110.549 2251.18 111.051 2251.03C111.552 2250.87 112.015 2250.61 112.408 2250.26C112.801 2249.91 113.116 2249.48 113.331 2249C113.547 2248.52 113.658 2248 113.658 2247.47C113.658 2246.95 113.547 2246.43 113.331 2245.95C113.116 2245.47 112.801 2245.04 112.408 2244.69C112.015 2244.34 111.552 2244.08 111.051 2243.92C110.549 2243.76 110.019 2243.71 109.497 2243.77V2243.82Z"
			fill="black"
		/>
		<path
			d="M309.274 2187.83C308.295 2187.84 307.36 2188.24 306.672 2188.94C305.984 2189.64 305.599 2190.58 305.599 2191.56V2243.82H271.503C270.981 2243.76 270.451 2243.81 269.949 2243.97C269.448 2244.13 268.985 2244.39 268.592 2244.74C268.199 2245.09 267.884 2245.52 267.669 2246C267.453 2246.48 267.342 2247 267.342 2247.52C267.342 2248.05 267.453 2248.57 267.669 2249.05C267.884 2249.53 268.199 2249.96 268.592 2250.31C268.985 2250.66 269.448 2250.92 269.949 2251.08C270.451 2251.24 270.981 2251.29 271.503 2251.22H275.484V2273.27C275.423 2273.8 275.473 2274.33 275.631 2274.83C275.789 2275.33 276.051 2275.79 276.401 2276.19C276.75 2276.58 277.179 2276.89 277.659 2277.11C278.139 2277.32 278.659 2277.44 279.185 2277.44C279.711 2277.44 280.231 2277.32 280.711 2277.11C281.191 2276.89 281.62 2276.58 281.969 2276.19C282.319 2275.79 282.581 2275.33 282.739 2274.83C282.897 2274.33 282.947 2273.8 282.885 2273.27V2251.22H305.599V2273.27C305.599 2274.25 305.984 2275.19 306.672 2275.89C307.36 2276.59 308.295 2276.99 309.274 2277C310.262 2277 311.21 2276.61 311.909 2275.91C312.608 2275.21 313 2274.26 313 2273.27V2191.61C313.007 2191.11 312.915 2190.62 312.731 2190.17C312.547 2189.71 312.274 2189.29 311.927 2188.94C311.58 2188.59 311.167 2188.31 310.712 2188.12C310.256 2187.93 309.768 2187.83 309.274 2187.83V2187.83Z"
			fill="black"
		/>
		<path
			d="M253.587 2196.41C253.587 2195.43 253.202 2194.49 252.514 2193.79C251.826 2193.09 250.891 2192.69 249.912 2192.68H131.087C130.108 2192.69 129.173 2193.09 128.485 2193.79C127.798 2194.49 127.412 2195.43 127.412 2196.41C127.412 2197.38 127.799 2198.31 128.488 2199C129.178 2199.69 130.112 2200.08 131.087 2200.08H186.774V2273.17C186.774 2274.16 187.166 2275.11 187.865 2275.81C188.564 2276.51 189.511 2276.9 190.5 2276.9C191.488 2276.9 192.436 2276.51 193.134 2275.81C193.833 2275.11 194.226 2274.16 194.226 2273.17V2200.18H249.912C250.403 2200.18 250.89 2200.08 251.342 2199.89C251.795 2199.7 252.205 2199.42 252.547 2199.07C252.89 2198.72 253.159 2198.3 253.337 2197.84C253.516 2197.39 253.601 2196.9 253.587 2196.41V2196.41Z"
			fill="black"
		/>
		<path
			d="M95.4092 2138.73C96.9093 2139.12 98.4537 2139.3 100.003 2139.29C104.636 2139.32 109.12 2137.65 112.604 2134.59C116.089 2131.54 118.333 2127.32 118.912 2122.72C119.49 2118.12 118.363 2113.47 115.744 2109.65C113.125 2105.83 109.195 2103.1 104.699 2101.98C101.678 2101.21 98.513 2101.19 95.4853 2101.94C92.4575 2102.68 89.6605 2104.16 87.3426 2106.25C85.0247 2108.33 83.2577 2110.96 82.1985 2113.89C81.1392 2116.82 80.8205 2119.97 81.2706 2123.06C81.7864 2126.79 83.41 2130.27 85.931 2133.07C88.4519 2135.86 91.754 2137.83 95.4092 2138.73V2138.73ZM92.3467 2111.78C94.4391 2109.87 97.1706 2108.81 100.003 2108.82C100.982 2108.84 101.957 2108.96 102.912 2109.18C105.106 2109.75 107.084 2110.96 108.599 2112.64C110.114 2114.33 111.101 2116.43 111.436 2118.67C111.733 2120.64 111.512 2122.66 110.794 2124.53C110.077 2126.39 108.888 2128.04 107.343 2129.3C105.798 2130.57 103.951 2131.41 101.983 2131.75C100.014 2132.09 97.9913 2131.91 96.1124 2131.23C94.2336 2130.56 92.5631 2129.4 91.2644 2127.88C89.9657 2126.37 89.0833 2124.54 88.7037 2122.58C88.3242 2120.61 88.4603 2118.59 89.0989 2116.7C89.7375 2114.8 90.8566 2113.11 92.3467 2111.78V2111.78Z"
			fill="black"
		/>
		<path
			d="M152.729 2219.63C151.736 2216.68 149.851 2214.12 147.337 2212.29C144.822 2210.46 141.802 2209.46 138.693 2209.42H122.207C120.735 2209.41 119.328 2208.82 118.287 2207.78C117.247 2206.74 116.656 2205.33 116.643 2203.86L116.184 2171.65L142.981 2180.23C145.589 2181.04 148.385 2181.04 150.994 2180.23L176.515 2172.21C178.05 2171.68 179.457 2170.84 180.644 2169.73C181.831 2168.62 182.772 2167.28 183.406 2165.78C184.097 2164.34 184.493 2162.78 184.572 2161.18C184.651 2159.59 184.411 2157.99 183.865 2156.49V2156.49C182.794 2153.72 180.72 2151.45 178.053 2150.13C175.386 2148.82 172.323 2148.56 169.471 2149.4L146.298 2156.64C145.378 2157 144.36 2157 143.44 2156.64L116.796 2145.36C114.048 2144.18 111.043 2143.73 108.068 2144.04L93.0618 2145.41C89.5156 2145.75 86.2313 2147.43 83.8789 2150.1C81.5266 2152.78 80.2836 2156.25 80.4034 2159.81L82.5472 2217.28C82.7731 2222.74 85.1368 2227.9 89.1282 2231.63C93.1197 2235.36 98.4189 2237.38 103.883 2237.24L126.137 2236.68C127.094 2236.62 128.041 2236.91 128.814 2237.47C129.587 2238.04 130.138 2238.86 130.373 2239.79L138.183 2267.4C138.967 2270.15 140.621 2272.56 142.894 2274.28C145.168 2276 147.938 2276.94 150.79 2276.95H153.291C155.403 2276.94 157.483 2276.43 159.361 2275.47C161.24 2274.5 162.865 2273.11 164.103 2271.4C165.341 2269.69 166.159 2267.71 166.488 2265.62C166.818 2263.53 166.651 2261.4 166 2259.39L152.729 2219.63ZM157.834 2267.1C157.28 2267.86 156.55 2268.49 155.707 2268.91C154.863 2269.34 153.93 2269.56 152.985 2269.55H150.484C149.249 2269.54 148.05 2269.13 147.065 2268.39C146.081 2267.64 145.364 2266.6 145.022 2265.41L137.213 2237.8C136.505 2235.36 135.022 2233.21 132.987 2231.68C130.953 2230.15 128.477 2229.33 125.933 2229.33H125.831L103.525 2229.84C101.775 2229.9 100.031 2229.61 98.3956 2228.98C96.7603 2228.36 95.2674 2227.41 94.0057 2226.19C92.744 2224.98 91.7391 2223.52 91.0509 2221.91C90.3627 2220.3 90.005 2218.57 89.9993 2216.82L87.8045 2159.3C87.7961 2157.67 88.3926 2156.11 89.4777 2154.9C90.5629 2153.69 92.059 2152.93 93.6743 2152.76L108.681 2151.34C110.423 2151.19 112.174 2151.47 113.785 2152.15L140.428 2163.48C142.968 2164.56 145.806 2164.71 148.442 2163.89L171.513 2156.64C172.535 2156.38 173.616 2156.5 174.556 2156.98C175.495 2157.46 176.228 2158.27 176.617 2159.25C176.825 2159.8 176.918 2160.39 176.89 2160.98C176.863 2161.57 176.716 2162.14 176.458 2162.67C176.2 2163.2 175.836 2163.67 175.39 2164.06C174.943 2164.45 174.423 2164.74 173.861 2164.91L148.34 2172.93C147.179 2173.31 145.927 2173.31 144.767 2172.93L113.07 2162.72C112.504 2162.54 111.904 2162.5 111.319 2162.6C110.733 2162.69 110.179 2162.93 109.701 2163.28C109.227 2163.62 108.844 2164.08 108.586 2164.6C108.328 2165.13 108.202 2165.71 108.221 2166.29L108.783 2203.65C108.776 2205.4 109.117 2207.13 109.785 2208.74C110.454 2210.35 111.438 2211.81 112.678 2213.03C113.919 2214.26 115.391 2215.23 117.01 2215.88C118.628 2216.53 120.36 2216.85 122.104 2216.82H138.642C140.201 2216.84 141.717 2217.33 142.979 2218.25C144.241 2219.16 145.187 2220.45 145.686 2221.93L158.803 2261.69C159.113 2262.59 159.2 2263.55 159.058 2264.49C158.915 2265.43 158.548 2266.33 157.987 2267.1H157.834Z"
			fill="black"
		/>
		<path
			d="M280.997 2139.29C282.547 2139.3 284.091 2139.12 285.591 2138.73C289.246 2137.83 292.548 2135.86 295.069 2133.07C297.59 2130.27 299.214 2126.79 299.73 2123.06C300.18 2119.97 299.861 2116.82 298.802 2113.89C297.743 2110.96 295.975 2108.33 293.658 2106.25C291.34 2104.16 288.543 2102.68 285.515 2101.94C282.487 2101.19 279.322 2101.21 276.301 2101.98C271.805 2103.1 267.876 2105.83 265.256 2109.65C262.637 2113.47 261.51 2118.12 262.089 2122.72C262.667 2127.32 264.911 2131.54 268.396 2134.59C271.881 2137.65 276.364 2139.32 280.997 2139.29ZM269.564 2118.87C269.9 2116.63 270.886 2114.53 272.401 2112.85C273.917 2111.16 275.894 2109.95 278.088 2109.38C279.043 2109.16 280.018 2109.04 280.997 2109.02C283.35 2109.03 285.645 2109.75 287.575 2111.1C289.504 2112.44 290.976 2114.35 291.793 2116.55C292.61 2118.76 292.733 2121.16 292.145 2123.44C291.558 2125.72 290.288 2127.76 288.505 2129.3C286.723 2130.83 284.514 2131.79 282.174 2132.03C279.834 2132.27 277.475 2131.8 275.414 2130.66C273.353 2129.53 271.688 2127.79 270.642 2125.68C269.597 2123.58 269.22 2121.2 269.564 2118.87V2118.87Z"
			fill="black"
		/>
		<path
			d="M298.454 2217.28L300.648 2159.76C300.743 2156.2 299.484 2152.73 297.126 2150.06C294.768 2147.39 291.485 2145.71 287.939 2145.36L272.933 2143.99C269.958 2143.68 266.953 2144.13 264.205 2145.31L241.695 2154.76C241.05 2155.05 240.339 2155.17 239.632 2155.11C238.925 2155.05 238.246 2154.8 237.663 2154.4L221.534 2143.37C218.961 2141.83 215.894 2141.32 212.962 2141.97C210.029 2142.61 207.456 2144.35 205.769 2146.84C204.083 2149.32 203.412 2152.36 203.895 2155.32C204.378 2158.28 205.977 2160.95 208.365 2162.77L232.763 2179.66C234.395 2180.77 236.276 2181.45 238.236 2181.64C240.196 2181.84 242.174 2181.54 243.992 2180.79L264.409 2171.96L263.949 2203.65C263.91 2205.11 263.31 2206.5 262.273 2207.53C261.237 2208.55 259.844 2209.14 258.386 2209.17H241.899C238.802 2209.25 235.801 2210.27 233.295 2212.09C230.789 2213.91 228.895 2216.45 227.863 2219.37L214.745 2259.19C214.07 2261.19 213.889 2263.33 214.218 2265.42C214.547 2267.5 215.376 2269.48 216.634 2271.18C217.86 2272.91 219.483 2274.31 221.366 2275.28C223.249 2276.25 225.337 2276.75 227.455 2276.74H229.956C232.807 2276.73 235.578 2275.8 237.851 2274.08C240.125 2272.35 241.778 2269.94 242.563 2267.2L250.372 2239.59C250.625 2238.67 251.18 2237.86 251.949 2237.29C252.718 2236.73 253.655 2236.44 254.609 2236.47L277.424 2237.24C282.832 2237.28 288.046 2235.23 291.968 2231.51C295.891 2227.78 298.216 2222.68 298.454 2217.28V2217.28ZM243.635 2237.7L235.825 2265.31C235.484 2266.5 234.767 2267.54 233.782 2268.29C232.798 2269.03 231.599 2269.44 230.364 2269.45H227.863C226.923 2269.44 225.996 2269.22 225.159 2268.79C224.322 2268.36 223.598 2267.74 223.046 2266.98C222.493 2266.22 222.129 2265.34 221.981 2264.41C221.834 2263.48 221.908 2262.53 222.197 2261.64L235.315 2221.93C235.813 2220.45 236.759 2219.16 238.022 2218.25C239.284 2217.33 240.8 2216.84 242.359 2216.82H258.896C262.292 2216.74 265.526 2215.36 267.922 2212.95C270.319 2210.54 271.694 2207.3 271.759 2203.91L272.32 2166.55C272.345 2165.93 272.206 2165.32 271.92 2164.77C271.633 2164.22 271.208 2163.76 270.687 2163.43C270.086 2163.02 269.376 2162.78 268.645 2162.77C268.136 2162.77 267.632 2162.87 267.165 2163.08L241.287 2174.15C240.618 2174.43 239.89 2174.54 239.168 2174.47C238.447 2174.4 237.754 2174.15 237.152 2173.74L212.755 2156.85C212.279 2156.52 211.876 2156.09 211.569 2155.6C211.262 2155.11 211.057 2154.56 210.968 2153.99C210.864 2153.41 210.888 2152.82 211.038 2152.26C211.188 2151.7 211.46 2151.17 211.836 2150.72C212.487 2149.86 213.44 2149.29 214.502 2149.11C215.564 2148.93 216.655 2149.16 217.552 2149.75L233.733 2160.68C235.345 2161.76 237.205 2162.42 239.14 2162.6C241.076 2162.78 243.025 2162.47 244.809 2161.7L267.216 2152.15C268.827 2151.47 270.578 2151.19 272.32 2151.34L287.326 2152.76C288.996 2152.91 290.547 2153.69 291.658 2154.94C292.77 2156.19 293.357 2157.83 293.298 2159.5L291.001 2216.82C291.003 2218.58 290.649 2220.32 289.96 2221.94C289.271 2223.55 288.262 2225.01 286.993 2226.23C285.724 2227.45 284.222 2228.39 282.578 2229.01C280.933 2229.63 279.18 2229.91 277.424 2229.84L255.119 2229.33C252.536 2229.26 250.005 2230.06 247.926 2231.6C245.846 2233.13 244.337 2235.31 243.635 2237.8V2237.7Z"
			fill="black"
		/>
		<path
			d="M138.744 2121.83C139.233 2122.08 139.777 2122.21 140.326 2122.19C141.185 2122.18 142.015 2121.87 142.674 2121.32L170.236 2098.41H240.725C241.7 2098.41 242.634 2098.02 243.324 2097.33C244.013 2096.64 244.4 2095.7 244.4 2094.73V2035.73C244.407 2035.24 244.317 2034.76 244.135 2034.3C243.953 2033.85 243.684 2033.44 243.342 2033.09C243 2032.75 242.592 2032.47 242.143 2032.28C241.694 2032.1 241.212 2032 240.725 2032H140.326C139.835 2031.99 139.347 2032.08 138.892 2032.27C138.437 2032.45 138.023 2032.73 137.676 2033.08C137.329 2033.42 137.054 2033.84 136.87 2034.29C136.685 2034.75 136.593 2035.23 136.6 2035.73V2118.46C136.601 2119.17 136.803 2119.86 137.182 2120.46C137.562 2121.06 138.104 2121.53 138.744 2121.83V2121.83ZM143.848 2039.4H236.999V2091H169.011C168.151 2091.01 167.318 2091.31 166.664 2091.87L144.001 2110.6L143.848 2039.4Z"
			fill="black"
		/>
	</g>
	<g clip-path="url(#clip2_420_8)">
		<path
			d="M191.026 1806C154.168 1806 118.82 1791.38 92.7571 1765.36C66.6945 1739.33 52.0527 1704.04 52.0527 1667.23C52.0527 1630.43 66.6945 1595.14 92.7571 1569.11C118.82 1543.09 154.168 1528.47 191.026 1528.47C192.308 1528.47 193.537 1528.98 194.443 1529.88C195.35 1530.79 195.859 1532.01 195.859 1533.29C195.859 1534.57 195.35 1535.8 194.443 1536.71C193.537 1537.61 192.308 1538.12 191.026 1538.12C165.451 1538.12 140.451 1545.69 119.186 1559.88C97.9216 1574.07 81.3477 1594.23 71.5606 1617.82C61.7736 1641.42 59.2129 1667.38 64.2023 1692.42C69.1917 1717.47 81.5071 1740.48 99.5912 1758.53C117.675 1776.59 140.716 1788.89 165.799 1793.87C190.883 1798.85 216.882 1796.29 240.51 1786.52C264.138 1776.75 284.334 1760.2 298.542 1738.97C312.751 1717.73 320.335 1692.77 320.335 1667.23C320.335 1665.96 320.844 1664.73 321.75 1663.82C322.656 1662.92 323.885 1662.41 325.167 1662.41C326.449 1662.41 327.678 1662.92 328.584 1663.82C329.49 1664.73 330 1665.96 330 1667.23C329.957 1704.02 315.302 1739.3 289.249 1765.31C263.195 1791.32 227.871 1805.96 191.026 1806V1806Z"
			fill="black"
		/>
		<path
			d="M191.026 1778.32C187.479 1778.32 183.934 1778.15 180.405 1777.79C179.767 1777.74 179.146 1777.56 178.578 1777.26C178.011 1776.96 177.509 1776.56 177.103 1776.06C176.697 1775.57 176.394 1775 176.214 1774.38C176.033 1773.77 175.978 1773.12 176.051 1772.49C176.185 1771.21 176.818 1770.04 177.812 1769.23C178.806 1768.41 180.081 1768.02 181.361 1768.14C184.601 1768.46 187.946 1768.62 191.239 1768.62C216.866 1768.55 241.525 1758.84 260.303 1741.42C279.08 1724.01 290.598 1700.17 292.561 1674.66C292.593 1674.01 292.758 1673.37 293.048 1672.79C293.337 1672.21 293.744 1671.69 294.242 1671.27C294.741 1670.85 295.321 1670.54 295.945 1670.36C296.57 1670.18 297.226 1670.12 297.872 1670.2C298.52 1670.24 299.152 1670.41 299.732 1670.7C300.312 1671 300.826 1671.4 301.243 1671.9C301.661 1672.39 301.973 1672.97 302.16 1673.59C302.347 1674.21 302.406 1674.86 302.333 1675.51C300.177 1703.5 287.512 1729.64 266.872 1748.71C246.233 1767.77 219.143 1778.35 191.026 1778.32V1778.32Z"
			fill="black"
		/>
		<path
			d="M156.456 1772.44C155.913 1772.45 155.371 1772.36 154.863 1772.17C131.756 1763.95 112.01 1748.34 98.6826 1727.78C85.3557 1707.21 79.1917 1682.83 81.1453 1658.42C83.0989 1634 93.0611 1610.91 109.489 1592.72C125.917 1574.52 147.894 1562.25 172.015 1557.79C172.657 1557.64 173.323 1557.62 173.972 1557.74C174.621 1557.85 175.24 1558.1 175.79 1558.46C176.34 1558.82 176.81 1559.29 177.171 1559.85C177.532 1560.4 177.777 1561.02 177.889 1561.66C178.002 1562.31 177.98 1562.98 177.825 1563.62C177.671 1564.26 177.387 1564.86 176.991 1565.39C176.595 1565.91 176.095 1566.35 175.523 1566.68C174.95 1567 174.317 1567.21 173.662 1567.28C151.361 1571.09 130.97 1582.21 115.718 1598.9C100.465 1615.58 91.2233 1636.87 89.4555 1659.39C87.6877 1681.91 93.4953 1704.38 105.958 1723.23C118.421 1742.08 136.827 1756.25 158.261 1763.47C158.866 1763.68 159.425 1764 159.905 1764.42C160.385 1764.84 160.777 1765.35 161.058 1765.92C161.34 1766.49 161.505 1767.11 161.545 1767.75C161.584 1768.39 161.497 1769.02 161.288 1769.63C160.88 1770.54 160.194 1771.31 159.327 1771.81C158.459 1772.31 157.455 1772.53 156.456 1772.44V1772.44Z"
			fill="black"
		/>
		<path
			d="M189.539 1544.43C188.377 1544.44 187.254 1544 186.406 1543.21C185.924 1542.8 185.529 1542.3 185.243 1541.73C184.958 1541.16 184.788 1540.55 184.743 1539.92C184.699 1539.28 184.781 1538.65 184.984 1538.05C185.188 1537.45 185.509 1536.9 185.928 1536.42L191.557 1530.01C191.954 1529.47 192.457 1529.03 193.035 1528.7C193.613 1528.37 194.252 1528.16 194.914 1528.09C195.576 1528.01 196.246 1528.08 196.881 1528.28C197.516 1528.48 198.104 1528.8 198.607 1529.24C199.109 1529.68 199.516 1530.21 199.802 1530.81C200.088 1531.41 200.246 1532.06 200.268 1532.73C200.289 1533.39 200.172 1534.06 199.925 1534.67C199.678 1535.29 199.306 1535.85 198.833 1536.32L193.257 1542.89C192.78 1543.39 192.203 1543.79 191.562 1544.06C190.922 1544.32 190.232 1544.45 189.539 1544.43V1544.43Z"
			fill="black"
		/>
		<path
			d="M195.169 1538.12C194.48 1538.11 193.801 1537.96 193.178 1537.67C192.554 1537.37 192.002 1536.95 191.558 1536.42L185.929 1530.01C185.091 1529.04 184.673 1527.77 184.768 1526.5C184.863 1525.22 185.462 1524.03 186.434 1523.19C187.405 1522.36 188.67 1521.94 189.95 1522.03C191.23 1522.13 192.419 1522.73 193.257 1523.7L198.886 1530.11C199.306 1530.59 199.627 1531.14 199.831 1531.74C200.034 1532.34 200.116 1532.97 200.072 1533.61C200.027 1534.24 199.857 1534.85 199.572 1535.42C199.286 1535.99 198.891 1536.49 198.409 1536.9C197.514 1537.69 196.362 1538.12 195.169 1538.12V1538.12Z"
			fill="black"
		/>
		<path
			d="M270.629 1658.7C260.426 1657.65 250.807 1653.44 243.122 1646.66C241.765 1645.29 240.807 1643.59 240.349 1641.72C239.89 1639.85 239.949 1637.89 240.519 1636.06C240.994 1635.08 241.24 1634.01 241.24 1632.93C241.24 1631.84 240.994 1630.77 240.519 1629.8C239.988 1629.22 237.758 1627.41 230.323 1628.79C213.596 1631.76 202.284 1614.26 198.036 1607.58L197.505 1606.73C194.208 1600.55 193.355 1593.36 195.115 1586.58C195.623 1584.24 196.624 1582.03 198.052 1580.1C199.48 1578.17 201.303 1576.57 203.4 1575.4C204.727 1574.71 205.364 1570.78 203.4 1563.73C203.239 1562.95 203.256 1562.15 203.449 1561.38C203.642 1560.61 204.006 1559.89 204.515 1559.28C205.054 1558.68 205.735 1558.22 206.496 1557.95C207.257 1557.69 208.073 1557.61 208.869 1557.74C231.844 1561.46 253.066 1572.3 269.533 1588.72C286 1605.15 296.88 1626.32 300.633 1649.26C300.819 1650.34 300.637 1651.44 300.117 1652.41C299.597 1653.37 298.769 1654.13 297.766 1654.56C290.166 1657.36 282.127 1658.78 274.028 1658.75H271.745L270.629 1658.7ZM235.156 1618.66C237.497 1618.48 239.848 1618.82 242.043 1619.66C244.237 1620.49 246.219 1621.8 247.848 1623.49C249.577 1625.72 250.66 1628.39 250.978 1631.19C251.297 1634 250.838 1636.83 249.653 1639.4C249.653 1639.4 249.653 1640.03 250.025 1640.3C253.371 1644.91 267.071 1649.37 270.417 1649.47C271.214 1649.47 272.276 1649.47 273.869 1649.47C279.474 1649.42 285.053 1648.71 290.49 1647.35C286.738 1628.31 277.579 1610.74 264.104 1596.75C250.63 1582.76 233.41 1572.94 214.498 1568.45C215.295 1577.78 211.737 1581.92 208.179 1583.83C207.274 1584.37 206.498 1585.1 205.902 1585.97C205.306 1586.84 204.906 1587.83 204.727 1588.86C203.699 1593.03 204.091 1597.41 205.842 1601.32L206.427 1602.23C209.719 1607.53 218.481 1620.94 228.837 1619.04C230.929 1618.74 233.043 1618.61 235.156 1618.66V1618.66Z"
			fill="black"
		/>
		<path
			d="M266.54 1724.98C256.61 1724.98 242.484 1718.35 239.085 1709.6C236.855 1703.93 234.571 1702.55 222.729 1696.45L221.667 1695.92C220.044 1695.27 218.57 1694.29 217.337 1693.05C216.105 1691.81 215.138 1690.34 214.498 1688.71C214.222 1687.01 214.317 1685.28 214.775 1683.62C215.233 1681.96 216.045 1680.43 217.153 1679.11C218.403 1677.68 219.288 1675.97 219.732 1674.12C220.176 1672.28 220.166 1670.35 219.702 1668.51C218.775 1666.35 218.503 1663.97 218.918 1661.66C219.333 1659.35 220.419 1657.22 222.039 1655.52C227.349 1651.06 235.899 1654.51 237.598 1655.25C237.916 1655.4 238.218 1655.57 238.501 1655.78C240.147 1657 241.9 1658.49 243.812 1660.08C253.158 1667.87 263.726 1676.78 279.71 1669.36C285.352 1666.46 291.747 1665.37 298.031 1666.23C299.194 1666.41 300.248 1667.01 300.993 1667.92C301.738 1668.83 302.12 1669.98 302.067 1671.16C301.574 1686.74 297.753 1702.03 290.862 1716.02C290.572 1716.6 290.17 1717.12 289.678 1717.55C289.186 1717.98 288.613 1718.3 287.994 1718.51C284.808 1719.52 281.356 1720.79 278.223 1721.9C275.09 1723.02 273.231 1723.71 271.373 1724.29C269.807 1724.77 268.177 1725 266.54 1724.98ZM224.057 1686.22C224.643 1686.64 225.265 1687.01 225.915 1687.33L226.924 1687.86C238.82 1694.01 244.236 1696.82 247.848 1706.1C249.919 1711.4 263.354 1716.71 268.293 1715.12L274.824 1712.84L282.949 1709.97C288.001 1699.15 291.076 1687.51 292.03 1675.61C289.133 1675.98 286.316 1676.82 283.693 1678.1C262.079 1688.13 247.263 1675.67 237.492 1667.5C235.952 1666.23 234.518 1665.01 233.138 1663.95C231.675 1663.33 230.106 1663 228.518 1662.99C228.548 1664.02 228.708 1665.03 228.996 1666.01C229.814 1669.15 229.905 1672.42 229.261 1675.59C228.616 1678.76 227.254 1681.74 225.278 1684.31L224.057 1686.22Z"
			fill="black"
		/>
		<path
			d="M93.1554 1687.6C90.458 1687.59 87.7631 1687.43 85.0837 1687.12C84.0191 1686.99 83.0264 1686.52 82.2586 1685.77C81.4909 1685.02 80.9907 1684.04 80.8353 1682.98C80.0997 1677.82 79.7271 1672.61 79.7201 1667.39C79.6813 1652.74 82.5684 1638.22 88.2124 1624.69C93.8564 1611.16 102.144 1598.89 112.592 1588.6C113.145 1588.05 113.823 1587.64 114.568 1587.41C115.313 1587.18 116.103 1587.14 116.869 1587.28C117.636 1587.42 118.358 1587.74 118.972 1588.22C119.587 1588.7 120.076 1589.32 120.398 1590.03C121.249 1592.75 122.929 1595.14 125.204 1596.86C127.48 1598.58 130.237 1599.55 133.09 1599.63C145.516 1599.63 149.021 1605.89 150.296 1609.54C152.898 1618.24 146.047 1629.11 137.922 1634.68L134.842 1636.69C132.908 1637.78 131.123 1639.12 129.532 1640.67C130.266 1643.32 131.511 1645.81 133.196 1647.99C134.969 1651.31 135.76 1655.07 135.478 1658.82C135.196 1662.58 133.852 1666.17 131.603 1669.2C125.815 1678.42 112.804 1687.6 93.1554 1687.6ZM89.9692 1677.84C107.653 1678.85 118.964 1671.32 123.531 1664.16C124.788 1662.63 125.593 1660.79 125.856 1658.83C126.119 1656.87 125.828 1654.88 125.018 1653.08C116.84 1639.82 118.699 1635.74 129.532 1628.63L132.452 1626.67C138.4 1622.64 142.011 1615.54 141.055 1612.3C140.1 1609.07 135.108 1609.28 132.931 1609.28C129.419 1609.29 125.958 1608.45 122.842 1606.83C119.726 1605.22 117.047 1602.87 115.034 1600C98.4515 1618.54 89.3164 1642.54 89.3851 1667.39C89.4014 1670.83 89.5963 1674.26 89.9692 1677.68V1677.84Z"
			fill="black"
		/>
		<path
			d="M142.436 1766.6C141.678 1766.61 140.93 1766.43 140.259 1766.07C126.338 1758.96 114.077 1748.99 104.277 1736.82C94.4764 1724.65 87.3574 1710.55 83.3847 1695.44C83.179 1694.73 83.1438 1693.98 83.2822 1693.25C83.4205 1692.53 83.7286 1691.84 84.1813 1691.25C84.6347 1690.67 85.215 1690.21 85.8777 1689.88C86.5404 1689.56 87.2679 1689.4 88.0048 1689.4C104.52 1689.4 114.132 1693.32 117.053 1701.44C118.204 1704.9 119.074 1708.44 119.655 1712.04C121.142 1720.31 121.885 1724.5 135.267 1727.63C137.765 1728.18 140.111 1729.28 142.139 1730.83C144.167 1732.39 145.828 1734.38 147.004 1736.64C148.793 1740.9 149.714 1745.47 149.714 1750.09C149.714 1754.7 148.793 1759.27 147.004 1763.53C146.764 1764.16 146.388 1764.74 145.902 1765.22C145.415 1765.69 144.831 1766.06 144.189 1766.28C143.631 1766.5 143.036 1766.61 142.436 1766.6V1766.6ZM94.6428 1699.26C102.41 1722.54 118.349 1742.22 139.516 1754.67C140.632 1750.17 140.278 1745.44 138.507 1741.15C137.997 1740.1 137.253 1739.18 136.332 1738.47C135.412 1737.75 134.339 1737.25 133.196 1737.02C113.654 1732.4 111.955 1722.96 110.255 1713.74C109.783 1710.67 109.037 1707.66 108.025 1704.72C106.91 1701.86 102.077 1699.9 94.5898 1699.26H94.6428Z"
			fill="black"
		/>
	</g>
	<g clip-path="url(#clip3_420_8)">
		<path
			d="M166.223 1203.88C165.643 1203.88 165.068 1203.76 164.531 1203.54C163.994 1203.32 163.507 1202.99 163.096 1202.58C162.685 1202.17 162.36 1201.69 162.137 1201.15C161.915 1200.61 161.801 1200.04 161.801 1199.46V1180.76C161.801 1179.59 162.267 1178.46 163.096 1177.63C163.926 1176.8 165.05 1176.34 166.223 1176.34C167.396 1176.34 168.522 1176.8 169.351 1177.63C170.18 1178.46 170.646 1179.59 170.646 1180.76V1199.46C170.646 1200.63 170.18 1201.76 169.351 1202.58C168.522 1203.41 167.396 1203.88 166.223 1203.88V1203.88Z"
			fill="black"
		/>
		<path
			d="M180.95 1203.88C179.777 1203.88 178.652 1203.41 177.823 1202.58C176.993 1201.76 176.527 1200.63 176.527 1199.46V1165.46C176.527 1164.28 176.993 1163.16 177.823 1162.33C178.652 1161.5 179.777 1161.04 180.95 1161.04C182.123 1161.04 183.248 1161.5 184.077 1162.33C184.907 1163.16 185.373 1164.28 185.373 1165.46V1199.46C185.373 1200.63 184.907 1201.76 184.077 1202.58C183.248 1203.41 182.123 1203.88 180.95 1203.88V1203.88Z"
			fill="black"
		/>
		<path
			d="M195.676 1203.68C194.503 1203.68 193.378 1203.22 192.548 1202.39C191.719 1201.56 191.253 1200.44 191.253 1199.26V1165.26C191.253 1164.09 191.719 1162.97 192.548 1162.14C193.378 1161.31 194.503 1160.84 195.676 1160.84C196.849 1160.84 197.974 1161.31 198.803 1162.14C199.633 1162.97 200.098 1164.09 200.098 1165.26V1199.26C200.098 1200.44 199.633 1201.56 198.803 1202.39C197.974 1203.22 196.849 1203.68 195.676 1203.68V1203.68Z"
			fill="black"
		/>
		<path
			d="M210.402 1229.43C209.229 1229.43 208.104 1228.96 207.275 1228.13C206.445 1227.31 205.979 1226.18 205.979 1225.01V1196.45C205.979 1195.27 206.445 1194.15 207.275 1193.32C208.104 1192.49 209.229 1192.03 210.402 1192.03C211.575 1192.03 212.7 1192.49 213.53 1193.32C214.359 1194.15 214.825 1195.27 214.825 1196.45V1225.01C214.825 1226.18 214.359 1227.31 213.53 1228.13C212.7 1228.96 211.575 1229.43 210.402 1229.43V1229.43Z"
			fill="black"
		/>
		<path
			d="M210.402 1280.68H157.815C157.234 1280.68 156.659 1280.56 156.122 1280.34C155.586 1280.12 155.098 1279.79 154.688 1279.38C154.277 1278.97 153.951 1278.48 153.729 1277.95C153.507 1277.41 153.392 1276.84 153.392 1276.26V1265.76C153.38 1258.83 152.332 1251.94 150.282 1245.31L149.455 1242.74C147.891 1237.61 147.089 1232.27 147.074 1226.9V1181.2C147.029 1178.5 147.891 1175.87 149.521 1173.72C151.151 1171.57 153.455 1170.03 156.065 1169.34C157.946 1168.86 159.919 1168.86 161.8 1169.34V1165.8C161.772 1163.1 162.64 1160.48 164.268 1158.33C165.896 1156.19 168.19 1154.64 170.792 1153.94C172.982 1153.46 175.263 1153.56 177.402 1154.24C178.253 1152.01 179.758 1150.1 181.72 1148.75C183.681 1147.41 186.005 1146.68 188.386 1146.68C190.766 1146.68 193.09 1147.41 195.051 1148.75C197.013 1150.1 198.518 1152.01 199.37 1154.24C201.17 1153.63 203.091 1153.47 204.967 1153.77C206.843 1154.06 208.619 1154.82 210.14 1155.95C211.661 1157.09 212.883 1158.58 213.699 1160.3C214.515 1162.01 214.901 1163.9 214.825 1165.8V1183.58C216.663 1182.85 218.637 1182.54 220.609 1182.65C224.226 1183 227.582 1184.69 230.019 1187.39C232.456 1190.08 233.797 1193.59 233.78 1197.22V1225.69C233.789 1232.51 231.2 1239.07 226.538 1244.05L215.894 1255.47C215.214 1256.21 214.833 1257.18 214.825 1258.19V1276.5C214.763 1277.63 214.27 1278.69 213.447 1279.47C212.624 1280.25 211.534 1280.68 210.402 1280.68ZM162.238 1271.84H205.98V1258.09C205.971 1254.84 207.206 1251.71 209.43 1249.35L220.074 1237.93C223.196 1234.58 224.932 1230.17 224.934 1225.59V1197.13C224.914 1195.78 224.414 1194.48 223.523 1193.47C222.633 1192.45 221.41 1191.79 220.074 1191.59C219.39 1191.54 218.702 1191.63 218.057 1191.87C217.412 1192.1 216.824 1192.47 216.332 1192.95C215.822 1193.41 215.416 1193.97 215.139 1194.6C214.863 1195.23 214.723 1195.91 214.728 1196.59C214.728 1197.17 214.613 1197.75 214.391 1198.28C214.169 1198.82 213.843 1199.31 213.432 1199.72C213.022 1200.13 212.534 1200.45 211.998 1200.68C211.461 1200.9 210.886 1201.01 210.305 1201.01C209.724 1201.01 209.149 1200.9 208.613 1200.68C208.076 1200.45 207.588 1200.13 207.178 1199.72C206.767 1199.31 206.441 1198.82 206.219 1198.28C205.997 1197.75 205.882 1197.17 205.882 1196.59V1165.8C205.924 1165.1 205.739 1164.4 205.354 1163.81C204.968 1163.23 204.404 1162.78 203.744 1162.54C203.291 1162.43 202.818 1162.42 202.363 1162.52C201.907 1162.63 201.482 1162.83 201.119 1163.13C200.773 1163.4 200.492 1163.74 200.298 1164.14C200.105 1164.53 200.003 1164.97 200.001 1165.41C200.001 1166.58 199.535 1167.7 198.706 1168.53C197.877 1169.36 196.752 1169.83 195.579 1169.83C194.406 1169.83 193.281 1169.36 192.451 1168.53C191.622 1167.7 191.156 1166.58 191.156 1165.41V1158.41C191.165 1157.96 191.068 1157.51 190.872 1157.1C190.676 1156.69 190.387 1156.33 190.029 1156.05C189.67 1155.78 189.251 1155.59 188.805 1155.5C188.36 1155.41 187.9 1155.43 187.462 1155.55C186.793 1155.78 186.218 1156.22 185.823 1156.81C185.429 1157.4 185.236 1158.1 185.275 1158.8V1165.41C185.275 1166.58 184.809 1167.7 183.98 1168.53C183.15 1169.36 182.025 1169.83 180.852 1169.83C179.679 1169.83 178.554 1169.36 177.725 1168.53C176.895 1167.7 176.429 1166.58 176.429 1165.41C176.435 1164.97 176.337 1164.53 176.143 1164.13C175.949 1163.74 175.664 1163.39 175.312 1163.13C174.957 1162.84 174.539 1162.63 174.092 1162.53C173.645 1162.43 173.181 1162.43 172.736 1162.54C172.067 1162.77 171.491 1163.22 171.097 1163.8C170.702 1164.39 170.51 1165.09 170.549 1165.8V1180.81C170.549 1181.98 170.083 1183.1 169.253 1183.93C168.424 1184.76 167.299 1185.23 166.126 1185.23C164.953 1185.23 163.828 1184.76 162.998 1183.93C162.169 1183.1 161.703 1181.98 161.703 1180.81C161.701 1180.37 161.6 1179.93 161.406 1179.54C161.213 1179.14 160.932 1178.79 160.585 1178.52C160.228 1178.24 159.808 1178.04 159.361 1177.95C158.914 1177.86 158.451 1177.87 158.009 1177.99C157.34 1178.22 156.765 1178.66 156.37 1179.25C155.976 1179.84 155.783 1180.54 155.822 1181.24V1226.95C155.827 1231.43 156.498 1235.88 157.815 1240.16L158.641 1242.74C160.963 1250.21 162.143 1257.99 162.14 1265.81L162.238 1271.84Z"
			fill="black"
		/>
		<path
			d="M192.274 1150.06C191.507 1150.05 190.754 1149.85 190.087 1149.48L176.965 1141.9C176.46 1141.61 176.018 1141.22 175.664 1140.76C175.309 1140.3 175.049 1139.77 174.897 1139.21C174.746 1138.65 174.707 1138.06 174.782 1137.49C174.858 1136.91 175.046 1136.35 175.336 1135.85C175.627 1135.35 176.014 1134.9 176.475 1134.55C176.936 1134.2 177.463 1133.94 178.025 1133.78C178.587 1133.63 179.173 1133.59 179.75 1133.67C180.327 1133.74 180.883 1133.93 181.387 1134.22L194.51 1141.8C195.519 1142.39 196.254 1143.35 196.555 1144.48C196.855 1145.61 196.697 1146.81 196.114 1147.82C195.736 1148.51 195.179 1149.08 194.503 1149.47C193.827 1149.87 193.057 1150.07 192.274 1150.06V1150.06Z"
			fill="black"
		/>
		<path
			d="M180.95 1160.5C180.183 1160.5 179.43 1160.3 178.763 1159.92L169.577 1154.62C168.558 1154.04 167.815 1153.07 167.51 1151.94C167.204 1150.8 167.362 1149.59 167.949 1148.58C168.535 1147.56 169.502 1146.82 170.637 1146.51C171.772 1146.21 172.981 1146.36 174 1146.95L183.185 1152.24C184.198 1152.84 184.934 1153.81 185.234 1154.95C185.535 1156.09 185.375 1157.3 184.789 1158.32C184.397 1158.99 183.836 1159.54 183.162 1159.92C182.488 1160.31 181.725 1160.51 180.95 1160.5V1160.5Z"
			fill="black"
		/>
		<path
			d="M153.684 1178.62C152.903 1178.61 152.136 1178.41 151.449 1178.04L132.931 1167.35C131.913 1166.77 131.169 1165.8 130.864 1164.66C130.559 1163.53 130.717 1162.32 131.303 1161.3C131.89 1160.29 132.857 1159.54 133.991 1159.24C135.126 1158.93 136.336 1159.09 137.354 1159.68L155.872 1170.36C156.718 1170.85 157.38 1171.6 157.756 1172.49C158.132 1173.39 158.201 1174.39 157.952 1175.33C157.703 1176.27 157.149 1177.11 156.377 1177.7C155.606 1178.3 154.659 1178.62 153.684 1178.62V1178.62Z"
			fill="black"
		/>
		<path
			d="M151.449 1199.12C150.953 1199.11 150.461 1199.03 149.991 1198.88C149.117 1198.6 148.284 1198.21 147.512 1197.71L122.871 1183.53C116.959 1180.12 112.563 1174.6 110.574 1168.08L105.957 1153.17C105.68 1152.2 105.035 1151.38 104.159 1150.88L88.2662 1141.51C87.7647 1141.22 87.3256 1140.84 86.975 1140.38C86.6244 1139.92 86.3693 1139.4 86.2248 1138.84C85.9312 1137.71 86.0879 1136.5 86.6622 1135.49L112.956 1089.97C113.239 1089.46 113.62 1089.02 114.078 1088.66C114.536 1088.3 115.061 1088.03 115.622 1087.88C116.183 1087.73 116.77 1087.69 117.347 1087.76C117.924 1087.84 118.48 1088.03 118.983 1088.32L128.12 1093.57C134.175 1097.07 140.731 1099.62 147.56 1101.14L150.234 1101.73C155.472 1102.91 160.502 1104.87 165.154 1107.56L192.809 1123.54C193.826 1124.12 194.572 1125.08 194.882 1126.21C195.192 1127.34 195.04 1128.54 194.462 1129.56C193.871 1130.58 192.902 1131.33 191.764 1131.64C190.626 1131.95 189.412 1131.79 188.386 1131.21L160.732 1115.23C156.844 1113.01 152.652 1111.38 148.29 1110.37L145.616 1109.79C137.967 1108.08 130.625 1105.22 123.843 1101.29L118.594 1098.23L96.7229 1136.12L108.776 1143.06C111.586 1144.67 113.673 1147.3 114.608 1150.4L119.226 1165.36C120.553 1169.74 123.51 1173.44 127.488 1175.71L152.129 1189.94C152.427 1190.1 152.736 1190.25 153.053 1190.38C154.159 1190.75 155.072 1191.55 155.591 1192.6C156.11 1193.64 156.193 1194.85 155.823 1195.96C155.537 1196.89 154.956 1197.7 154.166 1198.27C153.376 1198.84 152.422 1199.14 151.449 1199.12V1199.12Z"
			fill="black"
		/>
		<path
			d="M211.472 1192.66C210.508 1192.65 209.574 1192.33 208.811 1191.74C208.049 1191.15 207.499 1190.33 207.246 1189.4C206.993 1188.47 207.051 1187.48 207.41 1186.59C207.769 1185.7 208.41 1184.95 209.236 1184.45L223.816 1176.09C224.319 1175.8 224.875 1175.61 225.452 1175.54C226.029 1175.46 226.616 1175.5 227.177 1175.65C227.738 1175.81 228.263 1176.07 228.721 1176.43C229.179 1176.79 229.56 1177.24 229.843 1177.75C230.145 1178.24 230.343 1178.8 230.426 1179.37C230.509 1179.95 230.474 1180.54 230.324 1181.1C230.174 1181.66 229.912 1182.19 229.554 1182.65C229.196 1183.11 228.749 1183.49 228.239 1183.77L213.659 1192.08C212.992 1192.45 212.239 1192.65 211.472 1192.66V1192.66Z"
			fill="black"
		/>
		<path
			d="M211.471 1175.51C210.693 1175.5 209.931 1175.29 209.258 1174.9C208.585 1174.51 208.025 1173.95 207.632 1173.28C207.049 1172.27 206.89 1171.06 207.191 1169.94C207.491 1168.81 208.226 1167.84 209.236 1167.25L216.332 1163.17C217.344 1162.59 218.547 1162.43 219.676 1162.73C220.805 1163.03 221.769 1163.77 222.358 1164.78C222.944 1165.8 223.103 1167.01 222.803 1168.14C222.503 1169.28 221.767 1170.25 220.754 1170.85L213.658 1174.88C213.004 1175.29 212.246 1175.51 211.471 1175.51Z"
			fill="black"
		/>
		<path
			d="M206.612 1161.47C205.638 1161.47 204.691 1161.15 203.919 1160.55C203.147 1159.96 202.594 1159.13 202.345 1158.18C202.095 1157.24 202.164 1156.25 202.54 1155.35C202.916 1154.45 203.579 1153.7 204.425 1153.22L208.799 1150.69C209.817 1150.1 211.027 1149.95 212.162 1150.25C213.297 1150.56 214.263 1151.3 214.85 1152.32C215.436 1153.34 215.595 1154.54 215.289 1155.68C214.984 1156.81 214.24 1157.78 213.222 1158.36L208.848 1160.89C208.16 1161.26 207.393 1161.46 206.612 1161.47V1161.47Z"
			fill="black"
		/>
		<path
			d="M201.216 1147.63C200.438 1147.62 199.676 1147.41 199.003 1147.02C198.33 1146.63 197.77 1146.07 197.377 1145.4C196.794 1144.38 196.635 1143.18 196.936 1142.05C197.236 1140.92 197.972 1139.96 198.981 1139.37L223.768 1125.09C224.772 1124.61 225.921 1124.52 226.987 1124.85C228.052 1125.18 228.954 1125.89 229.513 1126.86C230.072 1127.82 230.246 1128.96 230.001 1130.05C229.756 1131.13 229.109 1132.09 228.191 1132.72L203.404 1147C202.749 1147.41 201.991 1147.63 201.216 1147.63V1147.63Z"
			fill="black"
		/>
		<path
			d="M229.795 1199.12C229.016 1199.11 228.254 1198.9 227.581 1198.51C226.909 1198.11 226.348 1197.56 225.955 1196.88C225.372 1195.87 225.213 1194.67 225.514 1193.54C225.815 1192.41 226.55 1191.45 227.559 1190.86L254.825 1175.12C258.698 1172.88 262.219 1170.08 265.274 1166.82L267.121 1164.83C272.428 1159.08 278.573 1154.17 285.347 1150.25L290.644 1147.24L268.725 1109.35L256.72 1116.35C253.907 1117.95 250.593 1118.44 247.437 1117.71L232.176 1114.21C227.724 1113.17 223.042 1113.88 219.102 1116.2L194.412 1130.39C193.256 1131.07 192.379 1132.15 191.935 1133.42C191.491 1134.69 191.507 1136.07 191.982 1137.33C192.271 1137.96 192.69 1138.52 193.212 1138.97C193.734 1139.43 194.346 1139.76 195.009 1139.96C195.671 1140.16 196.368 1140.21 197.053 1140.12C197.738 1140.03 198.395 1139.79 198.981 1139.42C199.483 1139.08 200.051 1138.84 200.65 1138.72C201.248 1138.61 201.864 1138.62 202.458 1138.75C203.053 1138.89 203.613 1139.14 204.104 1139.5C204.595 1139.86 205.006 1140.32 205.312 1140.85C205.617 1141.37 205.811 1141.96 205.88 1142.56C205.949 1143.17 205.892 1143.78 205.713 1144.36C205.533 1144.95 205.236 1145.48 204.839 1145.95C204.441 1146.41 203.953 1146.78 203.404 1147.05L191.205 1154.14C190.702 1154.43 190.146 1154.62 189.569 1154.7C188.992 1154.77 188.405 1154.73 187.844 1154.58C187.283 1154.42 186.758 1154.16 186.3 1153.8C185.842 1153.44 185.461 1153 185.178 1152.49C184.876 1151.99 184.678 1151.44 184.595 1150.86C184.513 1150.28 184.547 1149.7 184.697 1149.13C184.847 1148.57 185.109 1148.05 185.467 1147.59C185.825 1147.13 186.272 1146.75 186.782 1146.46L187.803 1145.88C186.252 1144.65 184.991 1143.09 184.109 1141.32C182.628 1138.04 182.41 1134.34 183.495 1130.91C184.581 1127.49 186.893 1124.58 189.99 1122.76L214.679 1108.53C220.554 1105.12 227.505 1104.08 234.12 1105.61L249.333 1109.11C250.326 1109.31 251.358 1109.16 252.249 1108.67L268.093 1099.49C269.116 1098.92 270.321 1098.77 271.455 1099.07C272.588 1099.37 273.561 1100.09 274.168 1101.1L300.462 1146.66C301.045 1147.67 301.204 1148.87 300.903 1150C300.602 1151.13 299.867 1152.09 298.858 1152.68L289.77 1157.88C283.776 1161.38 278.324 1165.73 273.585 1170.8L271.738 1172.79C268.107 1176.74 263.895 1180.12 259.247 1182.8L232.03 1198.54C231.343 1198.91 230.576 1199.11 229.795 1199.12V1199.12Z"
			fill="black"
		/>
		<path
			d="M298.421 1156.08C297.646 1156.08 296.885 1155.88 296.212 1155.5C295.539 1155.11 294.977 1154.56 294.581 1153.9L264.788 1102.65C264.203 1101.63 264.043 1100.42 264.343 1099.28C264.644 1098.15 265.38 1097.18 266.392 1096.58L282.868 1086.86C283.753 1086.34 284.794 1086.15 285.807 1086.32C286.82 1086.49 287.741 1087.01 288.409 1087.79C302.112 1103.58 311.77 1122.47 316.55 1142.82C316.772 1143.75 316.688 1144.72 316.311 1145.6C315.935 1146.47 315.285 1147.2 314.46 1147.68L300.657 1155.64C299.961 1155.98 299.191 1156.13 298.421 1156.08V1156.08ZM274.655 1101.63L300.074 1145.64L307.169 1141.56C302.756 1124.98 294.889 1109.52 284.083 1096.19L274.655 1101.63Z"
			fill="black"
		/>
		<path
			d="M88.7033 1145.35C87.9363 1145.34 87.1831 1145.14 86.5161 1144.76L69.9915 1135.05C69.0942 1134.54 68.4068 1133.73 68.051 1132.76C67.6952 1131.79 67.6939 1130.72 68.0474 1129.75C74.996 1110.18 86.5468 1092.55 101.729 1078.36C102.423 1077.71 103.306 1077.3 104.25 1077.19C105.194 1077.07 106.149 1077.26 106.978 1077.73L120.781 1085.7C121.287 1085.99 121.729 1086.38 122.08 1086.85C122.431 1087.32 122.683 1087.85 122.822 1088.42C123.115 1089.55 122.959 1090.75 122.384 1091.77L92.5429 1143.4C92.1214 1144.03 91.5474 1144.53 90.8754 1144.87C90.2035 1145.21 89.4558 1145.38 88.7033 1145.35V1145.35ZM77.622 1129.46L87.0993 1134.9L112.518 1090.89L105.422 1086.81C93.2645 1098.92 83.7925 1113.45 77.622 1129.46V1129.46Z"
			fill="black"
		/>
		<path
			d="M190.427 1301.81C177.75 1301.79 165.142 1299.92 153.004 1296.27C152.093 1296 151.293 1295.44 150.724 1294.68C150.155 1293.92 149.847 1292.99 149.845 1292.04V1276.06C149.845 1274.89 150.311 1273.76 151.14 1272.94C151.97 1272.11 153.095 1271.64 154.268 1271.64H213.951C215.124 1271.64 216.249 1272.11 217.078 1272.94C217.908 1273.76 218.374 1274.89 218.374 1276.06V1295.1C218.38 1296.14 218.024 1297.14 217.367 1297.94C216.71 1298.74 215.794 1299.28 214.777 1299.47C206.749 1301 198.598 1301.78 190.427 1301.81V1301.81ZM158.69 1288.69C175.251 1293.19 192.581 1294.12 209.528 1291.41V1280.48H158.545L158.69 1288.69Z"
			fill="black"
		/>
		<path
			d="M190.427 1301.81C157.187 1301.83 125.21 1289.09 101.116 1266.2C77.023 1243.31 62.6593 1212.04 60.9998 1178.86C60.9535 1178.27 61.0266 1177.67 61.2149 1177.1C61.4031 1176.53 61.7028 1176 62.0963 1175.55C62.4899 1175.1 62.9693 1174.73 63.507 1174.46C64.0447 1174.2 64.6298 1174.04 65.2282 1174.01C65.8106 1173.97 66.3937 1174.06 66.9432 1174.25C67.4927 1174.45 67.9974 1174.75 68.4276 1175.15C68.8578 1175.54 69.2049 1176.02 69.4483 1176.55C69.6918 1177.08 69.8269 1177.65 69.8454 1178.23C70.9596 1200.15 78.0324 1221.34 90.3026 1239.54C102.573 1257.74 119.576 1272.25 139.482 1281.5C159.388 1290.76 181.444 1294.42 203.275 1292.08C225.106 1289.75 245.886 1281.5 263.379 1268.24C263.837 1267.89 264.36 1267.63 264.92 1267.48C265.479 1267.32 266.063 1267.29 266.637 1267.36C267.212 1267.44 267.765 1267.63 268.265 1267.92C268.765 1268.22 269.202 1268.6 269.551 1269.07C269.907 1269.53 270.168 1270.06 270.32 1270.62C270.471 1271.18 270.509 1271.77 270.432 1272.35C270.356 1272.92 270.165 1273.48 269.872 1273.99C269.579 1274.49 269.189 1274.93 268.725 1275.28C246.261 1292.5 218.737 1301.83 190.427 1301.81Z"
			fill="black"
		/>
		<path
			d="M67.1239 1155.4H66.2004C65.1013 1155.19 64.1221 1154.57 63.4562 1153.67C62.7903 1152.77 62.4862 1151.66 62.6039 1150.54C65.5981 1133.61 71.9149 1117.44 81.1905 1102.96C90.4662 1088.48 102.517 1075.98 116.649 1066.17C117.625 1065.51 118.82 1065.27 119.975 1065.49C121.13 1065.71 122.153 1066.37 122.822 1067.34C123.154 1067.81 123.389 1068.34 123.513 1068.91C123.636 1069.48 123.646 1070.06 123.542 1070.63C123.438 1071.2 123.222 1071.74 122.907 1072.23C122.591 1072.71 122.182 1073.13 121.704 1073.46C108.54 1082.59 97.3139 1094.24 88.6723 1107.73C80.0308 1121.21 74.1444 1136.28 71.3522 1152.05C71.1089 1152.99 70.5643 1153.83 69.8011 1154.44C69.0378 1155.04 68.0978 1155.38 67.1239 1155.4Z"
			fill="black"
		/>
		<path
			d="M165.785 1054.07C164.757 1054.08 163.759 1053.72 162.968 1053.06C162.177 1052.41 161.643 1051.49 161.46 1050.48C161.231 1049.33 161.465 1048.14 162.112 1047.17C162.758 1046.2 163.765 1045.52 164.911 1045.28C167.292 1044.85 169.771 1044.41 172.152 1044.07C173.287 1043.96 174.422 1044.28 175.325 1044.97C176.229 1045.67 176.832 1046.68 177.012 1047.81C177.137 1048.95 176.811 1050.1 176.103 1051.01C175.395 1051.91 174.362 1052.51 173.222 1052.67C170.921 1052.99 168.685 1053.38 166.515 1053.83L165.785 1054.07Z"
			fill="black"
		/>
		<path
			d="M140.804 1062.04C139.794 1062.04 138.815 1061.69 138.03 1061.05C137.246 1060.41 136.703 1059.53 136.493 1058.54C136.283 1057.55 136.418 1056.52 136.875 1055.62C137.332 1054.72 138.084 1054 139.006 1053.59C141.776 1052.37 144.644 1051.26 147.463 1050.29C148.571 1049.9 149.788 1049.97 150.845 1050.48C151.903 1050.99 152.714 1051.9 153.101 1053.01C153.487 1054.11 153.418 1055.33 152.907 1056.39C152.397 1057.44 151.487 1058.25 150.379 1058.64C147.754 1059.52 145.13 1060.58 142.554 1061.7C141.999 1061.93 141.404 1062.05 140.804 1062.04Z"
			fill="black"
		/>
		<path
			d="M119.322 1073.94C118.606 1073.95 117.899 1073.78 117.263 1073.45C116.628 1073.12 116.083 1072.64 115.677 1072.05C115.016 1071.08 114.763 1069.89 114.972 1068.73C115.181 1067.58 115.836 1066.55 116.795 1065.88C118.836 1064.52 120.877 1063.16 122.967 1061.9C123.465 1061.6 124.017 1061.4 124.592 1061.31C125.167 1061.22 125.753 1061.25 126.317 1061.39C126.881 1061.53 127.412 1061.78 127.88 1062.13C128.347 1062.47 128.743 1062.9 129.043 1063.4C129.342 1063.9 129.541 1064.45 129.628 1065.02C129.715 1065.6 129.687 1066.19 129.547 1066.75C129.407 1067.31 129.158 1067.84 128.813 1068.31C128.468 1068.78 128.034 1069.17 127.536 1069.47C125.64 1070.64 123.696 1071.9 121.85 1073.16C121.106 1073.68 120.224 1073.95 119.322 1073.94V1073.94Z"
			fill="black"
		/>
		<path
			d="M315.577 1176.92C314.404 1176.92 313.279 1176.45 312.45 1175.63C311.62 1174.8 311.154 1173.67 311.154 1172.5C311.128 1140.51 298.401 1109.83 275.765 1087.21C253.13 1064.59 222.438 1051.87 190.427 1051.84C184.72 1051.84 179.02 1052.23 173.367 1053.01C172.777 1053.12 172.17 1053.12 171.583 1052.99C170.995 1052.86 170.44 1052.61 169.951 1052.27C169.461 1051.92 169.048 1051.47 168.737 1050.96C168.426 1050.44 168.222 1049.87 168.14 1049.28C168.057 1048.68 168.097 1048.08 168.256 1047.5C168.415 1046.92 168.691 1046.38 169.067 1045.91C169.442 1045.44 169.91 1045.05 170.44 1044.77C170.971 1044.48 171.553 1044.31 172.152 1044.26C178.208 1043.43 184.314 1043 190.427 1043C224.78 1043.04 257.715 1056.69 282.006 1080.97C306.297 1105.25 319.961 1138.17 320 1172.5C320 1173.67 319.534 1174.8 318.704 1175.63C317.875 1176.45 316.75 1176.92 315.577 1176.92Z"
			fill="black"
		/>
		<path
			d="M266.052 1276.55C265.372 1276.55 264.699 1276.4 264.091 1276.1C263.482 1275.79 262.955 1275.35 262.553 1274.8C262.198 1274.34 261.938 1273.82 261.787 1273.26C261.636 1272.7 261.599 1272.12 261.675 1271.54C261.752 1270.97 261.942 1270.41 262.235 1269.91C262.527 1269.41 262.916 1268.98 263.379 1268.63C265.177 1267.22 266.976 1265.81 268.677 1264.35C269.575 1263.59 270.738 1263.22 271.911 1263.31C273.085 1263.4 274.176 1263.95 274.946 1264.84C275.698 1265.74 276.064 1266.89 275.964 1268.06C275.864 1269.23 275.306 1270.3 274.412 1271.06C272.565 1272.66 270.669 1274.17 268.725 1275.67C267.95 1276.24 267.013 1276.55 266.052 1276.55V1276.55Z"
			fill="black"
		/>
		<path
			d="M289.041 1253.91C288.211 1253.91 287.397 1253.68 286.692 1253.24C285.988 1252.81 285.42 1252.18 285.055 1251.43C284.69 1250.69 284.542 1249.86 284.628 1249.03C284.714 1248.21 285.031 1247.42 285.541 1246.77C288.068 1243.56 290.401 1240.21 292.588 1236.81C293.233 1235.82 294.245 1235.13 295.403 1234.88C296.56 1234.63 297.768 1234.86 298.761 1235.5C299.753 1236.15 300.449 1237.16 300.695 1238.31C300.941 1239.47 300.718 1240.68 300.073 1241.67C297.746 1245.36 295.232 1248.93 292.54 1252.36C292.11 1252.86 291.573 1253.26 290.967 1253.53C290.362 1253.8 289.703 1253.93 289.041 1253.91V1253.91ZM307.558 1220.98C307.029 1220.99 306.503 1220.91 306.003 1220.73C304.905 1220.31 304.019 1219.47 303.537 1218.4C303.054 1217.32 303.015 1216.1 303.427 1215C304.836 1211.26 306.1 1207.33 307.169 1203.39C307.272 1202.79 307.501 1202.21 307.841 1201.7C308.181 1201.18 308.624 1200.75 309.143 1200.41C309.661 1200.08 310.243 1199.86 310.852 1199.77C311.46 1199.67 312.082 1199.71 312.676 1199.87C313.271 1200.03 313.826 1200.31 314.305 1200.69C314.784 1201.08 315.178 1201.56 315.46 1202.11C315.742 1202.66 315.907 1203.26 315.944 1203.87C315.981 1204.48 315.889 1205.1 315.674 1205.68C314.566 1209.9 313.236 1214.07 311.689 1218.16C311.371 1219 310.805 1219.71 310.066 1220.22C309.327 1220.72 308.452 1220.99 307.558 1220.98V1220.98Z"
			fill="black"
		/>
		<path
			d="M315.383 1183.96C314.784 1183.93 314.197 1183.78 313.659 1183.52C313.12 1183.26 312.641 1182.89 312.25 1182.43C311.859 1181.98 311.565 1181.45 311.385 1180.88C311.205 1180.3 311.143 1179.7 311.203 1179.11C311.203 1176.87 311.203 1174.59 311.203 1172.31C311.203 1171.13 311.669 1170.01 312.498 1169.18C313.328 1168.35 314.453 1167.89 315.626 1167.89C316.799 1167.89 317.924 1168.35 318.753 1169.18C319.582 1170.01 320.048 1171.13 320.048 1172.31C320.048 1174.73 320.048 1177.16 320.048 1179.59C320.043 1180.19 319.916 1180.78 319.676 1181.33C319.436 1181.87 319.087 1182.37 318.651 1182.77C318.215 1183.18 317.7 1183.5 317.139 1183.7C316.577 1183.91 315.979 1184 315.383 1183.96V1183.96Z"
			fill="black"
		/>
	</g>
	<g clip-path="url(#clip4_420_8)">
		<path
			d="M206.261 751.03H63.635C59.4883 751.03 55.5115 749.384 52.5793 746.455C49.6472 743.526 48 739.553 48 735.411C48 731.268 49.6472 727.296 52.5793 724.366C55.5115 721.437 59.4883 719.792 63.635 719.792H206.261C210.407 719.792 214.384 721.437 217.316 724.366C220.248 727.296 221.896 731.268 221.896 735.411C221.896 739.553 220.248 743.526 217.316 746.455C214.384 749.384 210.407 751.03 206.261 751.03V751.03ZM63.635 728.932C61.915 728.932 60.2654 729.615 59.0492 730.83C57.8329 732.045 57.1498 733.692 57.1498 735.411C57.1498 737.129 57.8329 738.777 59.0492 739.992C60.2654 741.207 61.915 741.889 63.635 741.889H206.261C207.981 741.889 209.63 741.207 210.846 739.992C212.063 738.777 212.746 737.129 212.746 735.411C212.746 733.692 212.063 732.045 210.846 730.83C209.63 729.615 207.981 728.932 206.261 728.932H63.635Z"
			fill="black"
		/>
		<path
			d="M200.228 767.452H69.5174C68.3041 767.452 67.1403 766.971 66.2824 766.113C65.4244 765.256 64.9424 764.094 64.9424 762.882V746.459C64.9424 745.247 65.4244 744.085 66.2824 743.228C67.1403 742.371 68.3041 741.889 69.5174 741.889H200.228C200.831 741.882 201.429 741.996 201.987 742.223C202.545 742.451 203.052 742.787 203.478 743.213C203.904 743.639 204.241 744.145 204.469 744.703C204.696 745.26 204.81 745.857 204.803 746.459V762.882C204.803 764.094 204.321 765.256 203.463 766.113C202.605 766.971 201.442 767.452 200.228 767.452ZM74.2431 758.312H195.653V751.03H74.2431V758.312Z"
			fill="black"
		/>
		<path
			d="M104.91 801H86.9117C85.6983 801 84.5349 800.519 83.6769 799.661C82.8189 798.804 82.3369 797.642 82.3369 796.43V762.882C82.3369 761.67 82.8189 760.507 83.6769 759.65C84.5349 758.793 85.6983 758.312 86.9117 758.312H104.91C106.123 758.312 107.286 758.793 108.144 759.65C109.002 760.507 109.484 761.67 109.484 762.882V796.43C109.484 797.642 109.002 798.804 108.144 799.661C107.286 800.519 106.123 801 104.91 801V801ZM91.4867 791.86H100.335V767.452H91.4867V791.86Z"
			fill="black"
		/>
		<path
			d="M183.034 801H165.037C163.819 801 162.65 800.52 161.784 799.665C160.918 798.809 160.424 797.647 160.411 796.43V762.882C160.424 761.665 160.918 760.503 161.784 759.647C162.65 758.792 163.819 758.312 165.037 758.312H183.034C184.248 758.312 185.411 758.793 186.269 759.65C187.127 760.507 187.609 761.67 187.609 762.882V796.43C187.609 797.642 187.127 798.804 186.269 799.661C185.411 800.519 184.248 801 183.034 801V801ZM169.611 791.86H178.409V767.452H169.561L169.611 791.86Z"
			fill="black"
		/>
		<path
			d="M110.239 728.932C109.025 728.932 107.862 728.451 107.004 727.593C106.146 726.736 105.664 725.574 105.664 724.362V713.514C105.664 712.302 106.146 711.139 107.004 710.282C107.862 709.425 109.025 708.944 110.239 708.944C111.452 708.944 112.616 709.425 113.474 710.282C114.332 711.139 114.814 712.302 114.814 713.514V724.362C114.814 724.962 114.695 725.556 114.465 726.111C114.235 726.665 113.899 727.169 113.474 727.593C113.049 728.018 112.545 728.354 111.99 728.584C111.435 728.814 110.84 728.932 110.239 728.932V728.932Z"
			fill="black"
		/>
		<path
			d="M159.657 728.932C158.444 728.932 157.28 728.451 156.422 727.593C155.564 726.736 155.082 725.574 155.082 724.362V713.514C155.082 712.302 155.564 711.139 156.422 710.282C157.28 709.425 158.444 708.944 159.657 708.944C160.87 708.944 162.034 709.425 162.892 710.282C163.75 711.139 164.232 712.302 164.232 713.514V724.362C164.232 724.962 164.113 725.556 163.884 726.111C163.654 726.665 163.317 727.169 162.892 727.593C162.467 728.018 161.963 728.354 161.408 728.584C160.853 728.814 160.258 728.932 159.657 728.932V728.932Z"
			fill="black"
		/>
		<path
			d="M134.973 664.799C129.263 665.07 123.603 663.626 118.723 660.653C113.842 657.68 109.965 653.314 107.592 648.12C105.218 642.925 104.458 637.139 105.407 631.508C106.357 625.877 108.974 620.659 112.92 616.528C116.866 612.396 121.961 609.541 127.547 608.33C133.134 607.118 138.955 607.607 144.261 609.732C149.566 611.857 154.113 615.521 157.314 620.252C160.515 624.982 162.225 630.563 162.221 636.273C162.37 643.659 159.588 650.803 154.483 656.147C149.378 661.492 142.365 664.602 134.973 664.799ZM134.973 616.888C131.076 616.616 127.188 617.521 123.814 619.487C120.44 621.453 117.736 624.387 116.055 627.909C114.373 631.431 113.792 635.377 114.386 639.234C114.981 643.09 116.723 646.679 119.387 649.532C122.051 652.386 125.513 654.372 129.323 655.233C133.133 656.094 137.114 655.789 140.748 654.359C144.382 652.928 147.501 650.438 149.699 647.213C151.897 643.987 153.072 640.175 153.071 636.273C153.234 631.308 151.421 626.48 148.029 622.847C144.637 619.214 139.943 617.071 134.973 616.888V616.888Z"
			fill="black"
		/>
		<path
			d="M182.582 728.932H87.3641C86.1508 728.932 84.987 728.451 84.1291 727.594C83.2711 726.736 82.7891 725.574 82.7891 724.362V696.137C82.8024 689.207 85.568 682.564 90.4786 677.668C95.3892 672.772 102.044 670.022 108.982 670.022H160.964C167.902 670.022 174.557 672.772 179.468 677.668C184.378 682.564 187.143 689.207 187.157 696.137V724.362C187.157 724.962 187.038 725.556 186.808 726.111C186.579 726.665 186.242 727.169 185.817 727.594C185.392 728.018 184.888 728.355 184.333 728.584C183.777 728.814 183.183 728.932 182.582 728.932V728.932ZM92.0898 719.792H178.158V696.137C178.145 691.631 176.343 687.313 173.148 684.131C169.954 680.949 165.626 679.163 161.115 679.163H108.982C104.47 679.163 100.143 680.949 96.9484 684.131C93.7537 687.313 91.9522 691.631 91.9389 696.137L92.0898 719.792Z"
			fill="black"
		/>
		<path
			d="M318.571 756.202H227.727C226.514 756.202 225.35 755.721 224.492 754.864C223.634 754.007 223.152 752.844 223.152 751.632C223.152 750.42 223.634 749.258 224.492 748.401C225.35 747.544 226.514 747.062 227.727 747.062H318.571C319.902 746.933 321.136 746.314 322.035 745.325C322.933 744.336 323.431 743.049 323.431 741.714C323.431 740.378 322.933 739.091 322.035 738.102C321.136 737.113 319.902 736.494 318.571 736.365H232.503C231.29 736.365 230.126 735.883 229.268 735.026C228.41 734.169 227.928 733.007 227.928 731.795C227.928 730.583 228.41 729.42 229.268 728.563C230.126 727.706 231.29 727.225 232.503 727.225H318.571C322.27 727.442 325.746 729.064 328.288 731.757C330.83 734.45 332.246 738.012 332.246 741.714C332.246 745.415 330.83 748.977 328.288 751.67C325.746 754.364 322.27 755.985 318.571 756.202V756.202Z"
			fill="black"
		/>
		<path
			d="M313.142 770.917H211.589C210.376 770.917 209.213 770.436 208.355 769.579C207.497 768.722 207.015 767.559 207.015 766.347C207.015 765.135 207.497 763.973 208.355 763.116C209.213 762.258 210.376 761.777 211.589 761.777H308.567V756.202H227.727C226.514 756.202 225.35 755.721 224.492 754.864C223.634 754.007 223.153 752.844 223.153 751.632C223.153 750.42 223.634 749.258 224.492 748.401C225.35 747.544 226.514 747.062 227.727 747.062H313.192C314.405 747.062 315.569 747.544 316.427 748.401C317.285 749.258 317.767 750.42 317.767 751.632V766.347C317.767 766.952 317.647 767.55 317.414 768.108C317.181 768.665 316.84 769.172 316.409 769.597C315.979 770.022 315.469 770.357 314.908 770.584C314.347 770.811 313.747 770.924 313.142 770.917V770.917Z"
			fill="black"
		/>
		<path
			d="M227.727 801H211.589C210.376 801 209.213 800.519 208.355 799.662C207.497 798.804 207.015 797.642 207.015 796.43V766.297C207.015 765.085 207.497 763.922 208.355 763.065C209.213 762.208 210.376 761.727 211.589 761.727H227.727C228.941 761.727 230.104 762.208 230.962 763.065C231.82 763.922 232.302 765.085 232.302 766.297V796.43C232.302 797.03 232.184 797.624 231.954 798.179C231.724 798.733 231.387 799.237 230.962 799.662C230.538 800.086 230.033 800.423 229.478 800.652C228.923 800.882 228.328 801 227.727 801V801ZM216.164 791.86H223.102V770.917H216.164V791.86Z"
			fill="black"
		/>
		<path
			d="M297.708 801H281.57C280.357 801 279.193 800.519 278.335 799.662C277.477 798.804 276.995 797.642 276.995 796.43V766.297C276.995 765.085 277.477 763.922 278.335 763.065C279.193 762.208 280.357 761.727 281.57 761.727H297.708C298.921 761.727 300.085 762.208 300.943 763.065C301.801 763.922 302.283 765.085 302.283 766.297V796.43C302.283 797.642 301.801 798.804 300.943 799.662C300.085 800.519 298.921 801 297.708 801V801ZM286.145 791.86H293.133V770.917H286.145V791.86Z"
			fill="black"
		/>
		<path
			d="M232.504 736.365C231.29 736.365 230.127 735.883 229.269 735.026C228.411 734.169 227.929 733.007 227.929 731.795V722.102C227.929 720.89 228.411 719.727 229.269 718.87C230.127 718.013 231.29 717.532 232.504 717.532C233.717 717.532 234.881 718.013 235.739 718.87C236.597 719.727 237.079 720.89 237.079 722.102V731.795C237.079 732.395 236.96 732.989 236.73 733.544C236.5 734.098 236.163 734.602 235.739 735.026C235.314 735.451 234.809 735.787 234.254 736.017C233.699 736.247 233.105 736.365 232.504 736.365V736.365Z"
			fill="black"
		/>
		<path
			d="M276.794 736.365C276.191 736.372 275.593 736.258 275.035 736.031C274.477 735.803 273.97 735.467 273.544 735.041C273.118 734.616 272.781 734.109 272.554 733.552C272.326 732.994 272.212 732.397 272.219 731.795V722.102C272.219 720.89 272.701 719.727 273.559 718.87C274.417 718.013 275.581 717.532 276.794 717.532C278.007 717.532 279.171 718.013 280.029 718.87C280.887 719.727 281.369 720.89 281.369 722.102V731.795C281.369 732.395 281.25 732.989 281.021 733.544C280.791 734.098 280.454 734.602 280.029 735.026C279.604 735.451 279.1 735.787 278.545 736.017C277.99 736.247 277.395 736.365 276.794 736.365V736.365Z"
			fill="black"
		/>
		<path
			d="M254.624 678.962C249.413 679.162 244.262 677.801 239.831 675.054C235.401 672.306 231.894 668.298 229.762 663.544C227.63 658.791 226.969 653.508 227.866 648.377C228.762 643.245 231.174 638.498 234.792 634.747C238.41 630.995 243.068 628.411 248.168 627.324C253.268 626.238 258.577 626.701 263.412 628.652C268.247 630.603 272.387 633.955 275.3 638.275C278.214 642.595 279.767 647.687 279.761 652.897C279.834 656.26 279.241 659.604 278.016 662.737C276.79 665.87 274.956 668.73 272.62 671.153C270.284 673.575 267.491 675.512 264.403 676.853C261.314 678.193 257.991 678.909 254.624 678.962V678.962ZM254.624 635.972C251.234 635.74 247.852 636.533 244.918 638.246C241.984 639.959 239.634 642.514 238.172 645.579C236.711 648.644 236.206 652.078 236.723 655.433C237.24 658.788 238.756 661.911 241.073 664.395C243.389 666.879 246.4 668.609 249.714 669.361C253.028 670.113 256.492 669.853 259.656 668.613C262.819 667.373 265.537 665.211 267.454 662.408C269.372 659.606 270.402 656.292 270.41 652.897C270.559 648.562 268.981 644.346 266.022 641.173C263.062 637.999 258.963 636.129 254.624 635.972Z"
			fill="black"
		/>
		<path
			d="M297.306 736.365H232.504C231.29 736.365 230.127 735.883 229.269 735.026C228.411 734.169 227.929 733.007 227.929 731.795C227.929 730.583 228.411 729.42 229.269 728.563C230.127 727.706 231.29 727.224 232.504 727.224H292.832V706.533C292.832 702.617 291.274 698.862 288.502 696.093C285.731 693.324 281.971 691.768 278.051 691.768H231.448C229.507 691.768 227.585 692.15 225.792 692.892C223.998 693.634 222.369 694.722 220.997 696.093C219.624 697.464 218.535 699.091 217.793 700.883C217.05 702.674 216.667 704.594 216.667 706.533C216.667 707.745 216.185 708.908 215.327 709.765C214.469 710.622 213.306 711.103 212.093 711.103C210.879 711.103 209.716 710.622 208.858 709.765C208 708.908 207.518 707.745 207.518 706.533C207.518 700.193 210.039 694.113 214.527 689.629C219.014 685.146 225.101 682.628 231.448 682.628H278.051C284.394 682.641 290.473 685.164 294.958 689.644C299.443 694.124 301.968 700.197 301.982 706.533V731.644C302.002 732.265 301.896 732.884 301.669 733.463C301.442 734.042 301.099 734.568 300.661 735.01C300.224 735.452 299.7 735.8 299.124 736.033C298.547 736.266 297.928 736.379 297.306 736.365V736.365Z"
			fill="black"
		/>
		<path
			d="M191.882 611.815C190.669 611.815 189.506 611.334 188.648 610.477C187.79 609.62 187.308 608.457 187.308 607.245V602.223C187.308 601.011 187.79 599.848 188.648 598.991C189.506 598.134 190.669 597.653 191.882 597.653C193.096 597.653 194.259 598.134 195.117 598.991C195.975 599.848 196.457 601.011 196.457 602.223V607.245C196.457 608.457 195.975 609.62 195.117 610.477C194.259 611.334 193.096 611.815 191.882 611.815V611.815Z"
			fill="black"
		/>
		<path
			d="M207.065 621.91H202.038C200.825 621.91 199.661 621.428 198.803 620.571C197.945 619.714 197.463 618.552 197.463 617.34C197.463 616.128 197.945 614.965 198.803 614.108C199.661 613.251 200.825 612.77 202.038 612.77H207.065C208.279 612.77 209.442 613.251 210.3 614.108C211.158 614.965 211.64 616.128 211.64 617.34C211.64 618.552 211.158 619.714 210.3 620.571C209.442 621.428 208.279 621.91 207.065 621.91V621.91Z"
			fill="black"
		/>
		<path
			d="M191.883 637.077C191.28 637.084 190.682 636.97 190.124 636.743C189.566 636.515 189.059 636.179 188.633 635.753C188.207 635.327 187.87 634.821 187.642 634.263C187.415 633.706 187.301 633.109 187.308 632.507V627.484C187.308 626.272 187.79 625.11 188.648 624.253C189.506 623.396 190.669 622.914 191.883 622.914C193.096 622.914 194.26 623.396 195.118 624.253C195.976 625.11 196.458 626.272 196.458 627.484V632.507C196.458 633.719 195.976 634.881 195.118 635.738C194.26 636.595 193.096 637.077 191.883 637.077V637.077Z"
			fill="black"
		/>
		<path
			d="M181.778 621.91H176.751C175.537 621.91 174.374 621.428 173.516 620.571C172.658 619.714 172.176 618.552 172.176 617.34C172.176 616.128 172.658 614.965 173.516 614.108C174.374 613.251 175.537 612.77 176.751 612.77H181.778C182.991 612.77 184.155 613.251 185.013 614.108C185.871 614.965 186.353 616.128 186.353 617.34C186.353 618.552 185.871 619.714 185.013 620.571C184.155 621.428 182.991 621.91 181.778 621.91V621.91Z"
			fill="black"
		/>
		<path
			d="M235.771 577.263C234.558 577.263 233.394 576.781 232.536 575.924C231.678 575.067 231.196 573.905 231.196 572.693V567.671C231.196 566.458 231.678 565.296 232.536 564.439C233.394 563.582 234.558 563.1 235.771 563.1C236.984 563.1 238.148 563.582 239.006 564.439C239.864 565.296 240.346 566.458 240.346 567.671V572.693C240.346 573.905 239.864 575.067 239.006 575.924C238.148 576.781 236.984 577.263 235.771 577.263Z"
			fill="black"
		/>
		<path
			d="M251.004 587.357H245.977C245.376 587.357 244.781 587.239 244.226 587.009C243.671 586.78 243.167 586.443 242.742 586.019C242.317 585.594 241.98 585.091 241.75 584.536C241.52 583.982 241.402 583.387 241.402 582.787C241.402 582.187 241.52 581.593 241.75 581.038C241.98 580.484 242.317 579.98 242.742 579.556C243.167 579.131 243.671 578.795 244.226 578.565C244.781 578.335 245.376 578.217 245.977 578.217H251.004C252.218 578.217 253.382 578.699 254.239 579.556C255.097 580.413 255.579 581.575 255.579 582.787C255.579 583.999 255.097 585.162 254.239 586.019C253.382 586.876 252.218 587.357 251.004 587.357V587.357Z"
			fill="black"
		/>
		<path
			d="M235.771 602.524C234.558 602.524 233.394 602.043 232.536 601.186C231.678 600.329 231.196 599.166 231.196 597.954V592.932C231.196 591.72 231.678 590.557 232.536 589.7C233.394 588.843 234.558 588.362 235.771 588.362C236.984 588.362 238.148 588.843 239.006 589.7C239.864 590.557 240.346 591.72 240.346 592.932V597.954C240.346 599.166 239.864 600.329 239.006 601.186C238.148 602.043 236.984 602.524 235.771 602.524Z"
			fill="black"
		/>
		<path
			d="M225.716 587.357H220.689C220.088 587.357 219.494 587.239 218.938 587.009C218.383 586.78 217.879 586.443 217.454 586.019C217.029 585.594 216.692 585.091 216.463 584.536C216.233 583.982 216.114 583.387 216.114 582.787C216.114 582.187 216.233 581.593 216.463 581.038C216.692 580.484 217.029 579.98 217.454 579.556C217.879 579.131 218.383 578.795 218.938 578.565C219.494 578.335 220.088 578.217 220.689 578.217H225.716C226.317 578.217 226.912 578.335 227.467 578.565C228.022 578.795 228.527 579.131 228.951 579.556C229.376 579.98 229.713 580.484 229.943 581.038C230.173 581.593 230.291 582.187 230.291 582.787C230.291 583.387 230.173 583.982 229.943 584.536C229.713 585.091 229.376 585.594 228.951 586.019C228.527 586.443 228.022 586.78 227.467 587.009C226.912 587.239 226.317 587.357 225.716 587.357V587.357Z"
			fill="black"
		/>
	</g>
	<g clip-path="url(#clip5_420_8)">
		<path
			d="M142.031 152.096C138.17 152.275 134.344 151.289 131.046 149.265C127.748 147.24 125.129 144.27 123.528 140.738C121.927 137.205 121.416 133.272 122.062 129.445C122.708 125.618 124.48 122.074 127.151 119.268C129.822 116.462 133.268 114.524 137.046 113.703C140.824 112.882 144.76 113.217 148.347 114.664C151.934 116.11 155.007 118.602 157.171 121.819C159.334 125.036 160.488 128.829 160.484 132.71C160.582 137.734 158.696 142.592 155.239 146.225C151.782 149.857 147.033 151.968 142.031 152.096V152.096ZM142.031 120.712C139.638 120.531 137.246 121.079 135.167 122.283C133.088 123.487 131.418 125.292 130.375 127.462C129.332 129.633 128.964 132.068 129.319 134.452C129.674 136.835 130.736 139.056 132.365 140.825C133.995 142.594 136.118 143.829 138.457 144.37C140.796 144.91 143.243 144.731 145.479 143.855C147.715 142.98 149.637 141.448 150.993 139.46C152.35 137.472 153.08 135.12 153.086 132.71C153.186 129.652 152.081 126.678 150.012 124.432C147.942 122.186 145.075 120.85 142.031 120.712V120.712Z"
			fill="black"
		/>
		<path
			d="M142.031 284C141.05 284 140.109 283.609 139.415 282.912C138.722 282.216 138.332 281.271 138.332 280.286V225.557C138.332 224.572 138.722 223.628 139.415 222.931C140.109 222.235 141.05 221.844 142.031 221.844C143.012 221.844 143.952 222.235 144.646 222.931C145.34 223.628 145.729 224.572 145.729 225.557V280.286C145.729 281.271 145.34 282.216 144.646 282.912C143.952 283.609 143.012 284 142.031 284V284Z"
			fill="black"
		/>
		<path
			d="M158.532 284H125.529C125.043 284 124.562 283.904 124.113 283.717C123.664 283.531 123.257 283.257 122.913 282.912C122.57 282.567 122.297 282.158 122.111 281.707C121.926 281.257 121.83 280.774 121.83 280.286V181.848C112.023 180.037 102.687 176.232 94.398 170.666C86.1085 165.101 79.0396 157.892 73.6254 149.484C72.2142 146.942 71.7506 143.979 72.3179 141.125C72.8852 138.271 74.4462 135.714 76.7212 133.911C78.9961 132.108 81.8362 131.178 84.7322 131.287C87.6283 131.396 90.391 132.537 92.5251 134.506C102.041 144.221 113.44 151.874 126.016 156.993H157.76C170.429 151.914 181.915 144.258 191.495 134.506C193.629 132.537 196.392 131.396 199.288 131.287C202.184 131.178 205.024 132.108 207.299 133.911C209.574 135.714 211.135 138.271 211.702 141.125C212.269 143.979 211.806 146.942 210.394 149.484C204.994 157.879 197.944 165.079 189.676 170.644C181.409 176.209 172.098 180.021 162.312 181.848V280.286C162.312 280.781 162.214 281.27 162.023 281.726C161.832 282.182 161.552 282.596 161.2 282.941C160.848 283.287 160.431 283.559 159.972 283.741C159.514 283.923 159.025 284.011 158.532 284V284ZM129.227 276.572H154.915V178.624C154.914 177.737 155.229 176.88 155.803 176.206C156.377 175.532 157.172 175.087 158.044 174.951C167.353 173.619 176.272 170.309 184.206 165.242C192.14 160.175 198.906 153.467 204.054 145.566C204.646 144.559 204.853 143.37 204.636 142.221C204.419 141.072 203.793 140.042 202.875 139.322C201.994 138.609 200.883 138.244 199.753 138.296C198.622 138.349 197.55 138.815 196.738 139.608C186.32 150.362 173.7 158.717 159.751 164.095C159.375 164.157 158.99 164.157 158.613 164.095H125.61C125.219 164.152 124.822 164.152 124.431 164.095C110.503 158.7 97.8997 150.347 87.4852 139.608C86.6626 138.82 85.5846 138.358 84.4494 138.305C83.3143 138.253 82.1985 138.614 81.3073 139.322C80.4031 140.052 79.7905 141.085 79.5816 142.231C79.3727 143.378 79.5812 144.561 80.1691 145.566C85.3169 153.467 92.0835 160.175 100.017 165.242C107.951 170.309 116.87 173.619 126.179 174.951C127.051 175.087 127.846 175.532 128.42 176.206C128.994 176.88 129.309 177.737 129.309 178.624L129.227 276.572Z"
			fill="black"
		/>
		<path
			d="M285.222 211.233H174.628C173.647 211.233 172.706 210.841 172.013 210.145C171.319 209.448 170.929 208.504 170.929 207.519C170.929 206.534 171.319 205.589 172.013 204.893C172.706 204.196 173.647 203.805 174.628 203.805H285.222C286.914 203.805 288.537 203.13 289.734 201.928C290.931 200.726 291.603 199.097 291.603 197.397V110.713C291.603 109.014 290.931 107.384 289.734 106.182C288.537 104.981 286.914 104.305 285.222 104.305H152.111C151.13 104.305 150.189 103.914 149.495 103.218C148.802 102.521 148.412 101.577 148.412 100.592C148.412 99.6066 148.802 98.6619 149.495 97.9655C150.189 97.269 151.13 96.8777 152.111 96.8777H285.222C288.876 96.8777 292.381 98.3353 294.965 100.93C297.549 103.525 299 107.044 299 110.713V197.397C299 201.067 297.549 204.586 294.965 207.18C292.381 209.775 288.876 211.233 285.222 211.233Z"
			fill="black"
		/>
		<path
			d="M269.695 128.058H226.531C225.55 128.058 224.609 127.667 223.915 126.97C223.222 126.274 222.832 125.329 222.832 124.344C222.832 123.359 223.222 122.414 223.915 121.718C224.609 121.021 225.55 120.63 226.531 120.63H269.695C270.676 120.63 271.617 121.021 272.311 121.718C273.004 122.414 273.394 123.359 273.394 124.344C273.394 125.329 273.004 126.274 272.311 126.97C271.617 127.667 270.676 128.058 269.695 128.058V128.058Z"
			fill="black"
		/>
		<path
			d="M275.955 143.852H226.531C225.611 143.755 224.76 143.32 224.142 142.631C223.523 141.941 223.181 141.046 223.181 140.118C223.181 139.19 223.523 138.294 224.142 137.605C224.76 136.915 225.611 136.48 226.531 136.384H275.955C276.874 136.48 277.725 136.915 278.343 137.605C278.962 138.294 279.305 139.19 279.305 140.118C279.305 141.046 278.962 141.941 278.343 142.631C277.725 143.32 276.874 143.755 275.955 143.852V143.852Z"
			fill="black"
		/>
		<path
			d="M251.242 199.519C246.524 199.519 241.911 198.114 237.987 195.482C234.064 192.85 231.006 189.108 229.2 184.731C227.394 180.353 226.922 175.536 227.842 170.889C228.763 166.242 231.035 161.973 234.372 158.623C237.708 155.273 241.96 152.991 246.588 152.067C251.216 151.142 256.013 151.617 260.372 153.43C264.732 155.243 268.458 158.314 271.08 162.253C273.701 166.193 275.101 170.825 275.101 175.563C275.101 181.916 272.587 188.01 268.113 192.503C263.638 196.995 257.57 199.519 251.242 199.519ZM251.242 159.075C248.036 159.115 244.913 160.107 242.266 161.925C239.619 163.743 237.567 166.306 236.368 169.292C235.168 172.279 234.875 175.554 235.525 178.708C236.175 181.861 237.74 184.75 240.021 187.013C242.303 189.276 245.2 190.81 248.348 191.424C251.496 192.037 254.754 191.702 257.713 190.461C260.672 189.22 263.199 187.128 264.977 184.448C266.754 181.768 267.703 178.62 267.703 175.4C267.703 173.238 267.276 171.099 266.447 169.105C265.617 167.111 264.401 165.302 262.87 163.783C261.339 162.265 259.522 161.067 257.526 160.258C255.53 159.45 253.394 159.048 251.242 159.075V159.075Z"
			fill="black"
		/>
		<path
			d="M266.809 192.092C265.965 192.103 265.145 191.814 264.493 191.276L248.926 178.461C248.494 178.112 248.146 177.671 247.907 177.17C247.667 176.668 247.544 176.119 247.544 175.563V155.157C247.544 154.172 247.934 153.227 248.627 152.531C249.321 151.834 250.262 151.443 251.243 151.443C252.224 151.443 253.164 151.834 253.858 152.531C254.552 153.227 254.941 154.172 254.941 155.157V173.604L269.167 185.317C269.751 185.805 270.172 186.461 270.372 187.198C270.572 187.934 270.541 188.714 270.283 189.433C270.026 190.151 269.554 190.772 268.932 191.211C268.311 191.65 267.57 191.886 266.809 191.888V192.092Z"
			fill="black"
		/>
		<path
			d="M216.085 192.092H185.195C184.214 192.092 183.273 191.7 182.579 191.004C181.886 190.307 181.496 189.363 181.496 188.378C181.496 187.393 181.886 186.448 182.579 185.752C183.273 185.055 184.214 184.664 185.195 184.664H216.085C217.065 184.664 218.006 185.055 218.7 185.752C219.394 186.448 219.783 187.393 219.783 188.378C219.783 189.363 219.394 190.307 218.7 191.004C218.006 191.7 217.065 192.092 216.085 192.092V192.092Z"
			fill="black"
		/>
		<path
			d="M223.441 284H217.507C216.526 284 215.586 283.609 214.892 282.912C214.198 282.216 213.809 281.271 213.809 280.286C213.809 279.301 214.198 278.357 214.892 277.66C215.586 276.964 216.526 276.572 217.507 276.572H223.441C224.422 276.572 225.363 276.964 226.057 277.66C226.75 278.357 227.14 279.301 227.14 280.286C227.14 281.271 226.75 282.216 226.057 282.912C225.363 283.609 224.422 284 223.441 284V284Z"
			fill="black"
		/>
		<path
			d="M241.244 284H235.31C234.329 284 233.388 283.609 232.695 282.912C232.001 282.216 231.611 281.271 231.611 280.286C231.611 279.301 232.001 278.357 232.695 277.66C233.388 276.964 234.329 276.572 235.31 276.572H241.244C242.225 276.572 243.166 276.964 243.859 277.66C244.553 278.357 244.943 279.301 244.943 280.286C244.943 281.271 244.553 282.216 243.859 282.912C243.166 283.609 242.225 284 241.244 284V284Z"
			fill="black"
		/>
		<path
			d="M259.047 284H253.113C252.132 284 251.191 283.609 250.497 282.912C249.804 282.216 249.414 281.271 249.414 280.286C249.414 279.301 249.804 278.357 250.497 277.66C251.191 276.964 252.132 276.572 253.113 276.572H259.047C260.028 276.572 260.969 276.964 261.662 277.66C262.356 278.357 262.745 279.301 262.745 280.286C262.745 281.271 262.356 282.216 261.662 282.912C260.969 283.609 260.028 284 259.047 284V284Z"
			fill="black"
		/>
		<path
			d="M217.507 284H100.492C99.5106 284 98.5698 283.609 97.8762 282.912C97.1826 282.216 96.793 281.271 96.793 280.286C96.793 279.301 97.1826 278.357 97.8762 277.66C98.5698 276.964 99.5106 276.572 100.492 276.572H217.507C218.488 276.572 219.429 276.964 220.123 277.66C220.816 278.357 221.206 279.301 221.206 280.286C221.206 281.271 220.816 282.216 220.123 282.912C219.429 283.609 218.488 284 217.507 284V284Z"
			fill="black"
		/>
	</g>
	<defs>
		<clipPath id="clip0_420_8">
			<rect
				width="169"
				height="229"
				fill="white"
				transform="translate(106 2531)"
			/>
		</clipPath>
		<clipPath id="clip1_420_8">
			<rect
				width="245"
				height="245"
				fill="white"
				transform="translate(68 2032)"
			/>
		</clipPath>
		<clipPath id="clip2_420_8">
			<rect
				width="278"
				height="284"
				fill="white"
				transform="translate(52 1522)"
			/>
		</clipPath>
		<clipPath id="clip3_420_8">
			<rect
				width="259"
				height="259"
				fill="white"
				transform="translate(61 1043)"
			/>
		</clipPath>
		<clipPath id="clip4_420_8">
			<rect
				width="285"
				height="238"
				fill="white"
				transform="translate(48 563)"
			/>
		</clipPath>
		<clipPath id="clip5_420_8">
			<rect
				width="227"
				height="187"
				fill="white"
				transform="translate(72 97)"
			/>
		</clipPath>
	</defs>
</svg>
